Roboto Serif Deck-Hairline Italic.ufo
<glyph name="exclam" format="2">
  <advance width="236"/>
  <unicode hex="0021"/>
  <outline>
    <contour>
      <point x="223" y="735" type="curve"/>
      <point x="173" y="735" type="line"/>
      <point x="140" y="550"/>
      <point x="128" y="406"/>
      <point x="86" y="170" type="curve"/>
      <point x="108" y="170" type="line"/>
      <point x="150" y="404"/>
      <point x="190" y="549"/>
    </contour>
    <component base="period" xOffset="-14.68421052631579"/>
  </outline>
</glyph>
<glyph name="dollar" format="2">
  <advance width="560"/>
  <unicode hex="0024"/>
  <outline>
    <contour>
      <point x="261" y="8" type="curve" smooth="yes"/>
      <point x="390" y="8"/>
      <point x="488" y="75"/>
      <point x="488" y="197" type="curve" smooth="yes"/>
      <point x="488" y="298"/>
      <point x="398" y="339"/>
      <point x="322" y="374" type="curve" smooth="yes"/>
      <point x="319" y="375"/>
      <point x="316" y="377"/>
      <point x="313" y="378" type="curve"/>
      <point x="365" y="674" type="line"/>
      <point x="413" y="671"/>
      <point x="460" y="661"/>
      <point x="489" y="641" type="curve"/>
      <point x="475" y="559" type="line"/>
      <point x="523" y="559" type="line"/>
      <point x="538" y="644" type="line"/>
      <point x="507" y="668"/>
      <point x="451" y="693"/>
      <point x="369" y="697" type="curve"/>
      <point x="385" y="787" type="line"/>
      <point x="358" y="787" type="line"/>
      <point x="342" y="698" type="line"/>
      <point x="341" y="698" type="line" smooth="yes"/>
      <point x="202" y="698"/>
      <point x="118" y="634"/>
      <point x="118" y="531" type="curve" smooth="yes"/>
      <point x="118" y="431"/>
      <point x="198" y="392"/>
      <point x="272" y="356" type="curve" smooth="yes"/>
      <point x="275" y="354"/>
      <point x="278" y="353"/>
      <point x="281" y="351" type="curve"/>
      <point x="225" y="32" type="line"/>
      <point x="156" y="37"/>
      <point x="97" y="57"/>
      <point x="59" y="92" type="curve"/>
      <point x="75" y="179" type="line"/>
      <point x="26" y="179" type="line"/>
      <point x="11" y="96" type="line"/>
      <point x="47" y="59"/>
      <point x="115" y="18"/>
      <point x="221" y="10" type="curve"/>
      <point x="198" y="-120" type="line"/>
      <point x="225" y="-120" type="line"/>
      <point x="248" y="8" type="line"/>
      <point x="252" y="8"/>
      <point x="256" y="8"/>
    </contour>
    <contour>
      <point x="152" y="536" type="curve" smooth="yes"/>
      <point x="152" y="620"/>
      <point x="216" y="675"/>
      <point x="337" y="675" type="curve" smooth="yes"/>
      <point x="339" y="675" type="line"/>
      <point x="288" y="389" type="line"/>
      <point x="214" y="423"/>
      <point x="152" y="458"/>
    </contour>
    <contour>
      <point x="453" y="193" type="curve" smooth="yes"/>
      <point x="453" y="87"/>
      <point x="376" y="31"/>
      <point x="264" y="31" type="curve" smooth="yes"/>
      <point x="260" y="31"/>
      <point x="256" y="31"/>
      <point x="252" y="31" type="curve"/>
      <point x="306" y="340" type="line"/>
      <point x="382" y="305"/>
      <point x="453" y="273"/>
    </contour>
  </outline>
</glyph>
<glyph name="parenleft" format="2">
  <advance width="306"/>
  <unicode hex="0028"/>
  <outline>
    <contour>
      <point x="87" y="229" type="curve" smooth="yes"/>
      <point x="87" y="468"/>
      <point x="220" y="645"/>
      <point x="369" y="747" type="curve"/>
      <point x="370" y="750" type="line"/>
      <point x="341" y="750" type="line"/>
      <point x="197" y="662"/>
      <point x="51" y="478"/>
      <point x="51" y="229" type="curve" smooth="yes"/>
      <point x="51" y="71"/>
      <point x="111" y="-54"/>
      <point x="187" y="-130" type="curve"/>
      <point x="214" y="-130" type="line"/>
      <point x="215" y="-127" type="line"/>
      <point x="143" y="-48"/>
      <point x="87" y="69"/>
    </contour>
  </outline>
</glyph>
<glyph name="plus" format="2">
  <advance width="560"/>
  <unicode hex="002B"/>
  <outline>
    <contour>
      <point x="475" y="353" type="line"/>
      <point x="301" y="353" type="line"/>
      <point x="333" y="533" type="line"/>
      <point x="307" y="533" type="line"/>
      <point x="275" y="353" type="line"/>
      <point x="101" y="353" type="line"/>
      <point x="97" y="330" type="line"/>
      <point x="270" y="330" type="line"/>
      <point x="239" y="149" type="line"/>
      <point x="265" y="149" type="line"/>
      <point x="297" y="330" type="line"/>
      <point x="471" y="330" type="line"/>
    </contour>
  </outline>
</glyph>
<glyph name="comma" format="2">
  <advance width="186"/>
  <unicode hex="002C"/>
  <outline>
    <contour>
      <point x="44" y="-104" type="line"/>
      <point x="97" y="-73"/>
      <point x="127" y="-19"/>
      <point x="127" y="17" type="curve" smooth="yes"/>
      <point x="127" y="44"/>
      <point x="111" y="59"/>
      <point x="88" y="59" type="curve" smooth="yes"/>
      <point x="67" y="59"/>
      <point x="52" y="45"/>
      <point x="52" y="25" type="curve" smooth="yes"/>
      <point x="52" y="4"/>
      <point x="67" y="-9"/>
      <point x="86" y="-9" type="curve" smooth="yes"/>
      <point x="91" y="-9"/>
      <point x="96" y="-8"/>
      <point x="100" y="-6" type="curve"/>
      <point x="91" y="-34"/>
      <point x="64" y="-66"/>
      <point x="22" y="-87" type="curve"/>
    </contour>
  </outline>
</glyph>
<glyph name="period" format="2">
  <advance width="187"/>
  <unicode hex="002E"/>
  <outline>
    <contour>
      <point x="126" y="25" type="curve" smooth="yes"/>
      <point x="126" y="46"/>
      <point x="111" y="59"/>
      <point x="90" y="59" type="curve" smooth="yes"/>
      <point x="70" y="59"/>
      <point x="55" y="46"/>
      <point x="55" y="25" type="curve" smooth="yes"/>
      <point x="55" y="4"/>
      <point x="70" y="-9"/>
      <point x="90" y="-9" type="curve" smooth="yes"/>
      <point x="111" y="-9"/>
      <point x="126" y="4"/>
    </contour>
  </outline>
</glyph>
<glyph name="zero" format="2">
  <advance width="560"/>
  <unicode hex="0030"/>
  <outline>
    <contour>
      <point x="39" y="256" type="curve" smooth="yes"/>
      <point x="39" y="95"/>
      <point x="128" y="-11"/>
      <point x="244" y="-11" type="curve" smooth="yes"/>
      <point x="406" y="-11"/>
      <point x="527" y="159"/>
      <point x="527" y="352" type="curve" smooth="yes"/>
      <point x="527" y="513"/>
      <point x="439" y="619"/>
      <point x="323" y="619" type="curve" smooth="yes"/>
      <point x="161" y="619"/>
      <point x="39" y="449"/>
    </contour>
    <contour>
      <point x="320" y="596" type="curve"/>
      <point x="423" y="596"/>
      <point x="484" y="506"/>
      <point x="484" y="352" type="curve" smooth="yes"/>
      <point x="484" y="315"/>
      <point x="477" y="274"/>
      <point x="465" y="234" type="curve" smooth="yes"/>
      <point x="431" y="101"/>
      <point x="348" y="13"/>
      <point x="247" y="13" type="curve"/>
      <point x="144" y="13"/>
      <point x="82" y="102"/>
      <point x="82" y="256" type="curve" smooth="yes"/>
      <point x="82" y="295"/>
      <point x="89" y="337"/>
      <point x="101" y="377" type="curve" smooth="yes"/>
      <point x="136" y="510"/>
      <point x="221" y="596"/>
    </contour>
  </outline>
</glyph>
<glyph name="one" format="2">
  <advance width="517"/>
  <unicode hex="0031"/>
  <outline>
    <contour>
      <point x="273" y="56" type="curve" smooth="yes"/>
      <point x="371" y="609" type="line"/>
      <point x="348" y="609" type="line"/>
      <point x="304" y="557"/>
      <point x="229" y="534"/>
      <point x="139" y="533" type="curve"/>
      <point x="134" y="503" type="line"/>
      <point x="197" y="502"/>
      <point x="285" y="525"/>
      <point x="322" y="565" type="curve"/>
      <point x="233" y="56" type="line" smooth="yes"/>
      <point x="228" y="27"/>
      <point x="189" y="20"/>
      <point x="106" y="20" type="curve" smooth="yes"/>
      <point x="59" y="20" type="line"/>
      <point x="55" y="0" type="line"/>
      <point x="424" y="0" type="line"/>
      <point x="428" y="20" type="line"/>
      <point x="394" y="20" type="line" smooth="yes"/>
      <point x="305" y="20"/>
      <point x="268" y="27"/>
    </contour>
  </outline>
</glyph>
<glyph name="two" format="2">
  <advance width="560"/>
  <unicode hex="0032"/>
  <outline>
    <contour>
      <point x="0" y="0" type="line"/>
      <point x="450" y="0" type="line"/>
      <point x="478" y="166" type="line"/>
      <point x="456" y="166" type="line"/>
      <point x="432" y="82" type="line" smooth="yes"/>
      <point x="421" y="44"/>
      <point x="385" y="36"/>
      <point x="296" y="36" type="curve" smooth="yes"/>
      <point x="59" y="36" type="line"/>
      <point x="283" y="157"/>
      <point x="500" y="288"/>
      <point x="500" y="453" type="curve" smooth="yes"/>
      <point x="500" y="566"/>
      <point x="419" y="618"/>
      <point x="306" y="618" type="curve" smooth="yes"/>
      <point x="216" y="618"/>
      <point x="149" y="579"/>
      <point x="111" y="549" type="curve"/>
      <point x="95" y="459" type="line"/>
      <point x="143" y="459" type="line"/>
      <point x="158" y="548" type="line"/>
      <point x="202" y="578"/>
      <point x="248" y="595"/>
      <point x="306" y="595" type="curve" smooth="yes"/>
      <point x="396" y="595"/>
      <point x="457" y="553"/>
      <point x="457" y="453" type="curve" smooth="yes"/>
      <point x="457" y="290"/>
      <point x="267" y="176"/>
      <point x="5" y="31" type="curve"/>
    </contour>
  </outline>
</glyph>
<glyph name="three" format="2">
  <advance width="560"/>
  <unicode hex="0033"/>
  <outline>
    <contour>
      <point x="254" y="-90" type="curve" smooth="yes"/>
      <point x="392" y="-90"/>
      <point x="484" y="0"/>
      <point x="484" y="118" type="curve" smooth="yes"/>
      <point x="484" y="193"/>
      <point x="443" y="263"/>
      <point x="319" y="285" type="curve"/>
      <point x="428" y="298"/>
      <point x="505" y="364"/>
      <point x="505" y="463" type="curve" smooth="yes"/>
      <point x="505" y="561"/>
      <point x="429" y="618"/>
      <point x="316" y="618" type="curve" smooth="yes"/>
      <point x="227" y="618"/>
      <point x="167" y="582"/>
      <point x="135" y="559" type="curve"/>
      <point x="120" y="475" type="line"/>
      <point x="168" y="475" type="line"/>
      <point x="183" y="557" type="line"/>
      <point x="218" y="580"/>
      <point x="260" y="595"/>
      <point x="316" y="595" type="curve" smooth="yes"/>
      <point x="409" y="595"/>
      <point x="462" y="549"/>
      <point x="462" y="463" type="curve" smooth="yes"/>
      <point x="462" y="358"/>
      <point x="387" y="295"/>
      <point x="252" y="295" type="curve" smooth="yes"/>
      <point x="196" y="295" type="line"/>
      <point x="192" y="272" type="line"/>
      <point x="254" y="272" type="line" smooth="yes"/>
      <point x="382" y="272"/>
      <point x="441" y="206"/>
      <point x="441" y="118" type="curve" smooth="yes"/>
      <point x="441" y="10"/>
      <point x="370" y="-67"/>
      <point x="254" y="-67" type="curve" smooth="yes"/>
      <point x="123" y="-67"/>
      <point x="54" y="15"/>
      <point x="31" y="97" type="curve"/>
      <point x="9" y="81" type="line"/>
      <point x="36" y="-19"/>
      <point x="123" y="-90"/>
    </contour>
  </outline>
</glyph>
<glyph name="four" format="2">
  <advance width="560"/>
  <unicode hex="0034"/>
  <outline>
    <contour>
      <point x="20" y="112" type="line"/>
      <point x="347" y="112" type="line"/>
      <point x="314" y="-77" type="line"/>
      <point x="354" y="-77" type="line"/>
      <point x="387" y="112" type="line"/>
      <point x="518" y="112" type="line"/>
      <point x="524" y="144" type="line"/>
      <point x="392" y="144" type="line"/>
      <point x="474" y="609" type="line"/>
      <point x="428" y="609" type="line"/>
      <point x="24" y="139" type="line"/>
    </contour>
    <contour>
      <point x="61" y="144" type="line"/>
      <point x="428" y="572" type="line"/>
      <point x="352" y="144" type="line"/>
    </contour>
  </outline>
</glyph>
<glyph name="five" format="2">
  <advance width="559"/>
  <unicode hex="0035"/>
  <outline>
    <contour>
      <point x="247" y="-90" type="curve" smooth="yes"/>
      <point x="402" y="-90"/>
      <point x="502" y="23"/>
      <point x="502" y="166" type="curve" smooth="yes"/>
      <point x="502" y="279"/>
      <point x="430" y="366"/>
      <point x="303" y="366" type="curve" smooth="yes"/>
      <point x="236" y="366"/>
      <point x="175" y="339"/>
      <point x="127" y="282" type="curve"/>
      <point x="179" y="573" type="line"/>
      <point x="508" y="573" type="line"/>
      <point x="522" y="609" type="line"/>
      <point x="161" y="609" type="line"/>
      <point x="95" y="240" type="line"/>
      <point x="116" y="240" type="line"/>
      <point x="165" y="307"/>
      <point x="221" y="343"/>
      <point x="303" y="343" type="curve" smooth="yes"/>
      <point x="405" y="343"/>
      <point x="459" y="271"/>
      <point x="459" y="166" type="curve" smooth="yes"/>
      <point x="459" y="34"/>
      <point x="381" y="-67"/>
      <point x="247" y="-67" type="curve" smooth="yes"/>
      <point x="133" y="-67"/>
      <point x="66" y="3"/>
      <point x="42" y="78" type="curve"/>
      <point x="22" y="62" type="line"/>
      <point x="47" y="-19"/>
      <point x="124" y="-90"/>
    </contour>
  </outline>
</glyph>
<glyph name="six" format="2">
  <advance width="561"/>
  <unicode hex="0036"/>
  <outline>
    <contour>
      <point x="282" y="-10" type="curve" smooth="yes"/>
      <point x="420" y="-10"/>
      <point x="520" y="113"/>
      <point x="520" y="250" type="curve" smooth="yes"/>
      <point x="520" y="365"/>
      <point x="446" y="459"/>
      <point x="316" y="459" type="curve" smooth="yes"/>
      <point x="236" y="459"/>
      <point x="161" y="416"/>
      <point x="107" y="336" type="curve"/>
      <point x="149" y="543"/>
      <point x="319" y="695"/>
      <point x="528" y="717" type="curve"/>
      <point x="528" y="740" type="line"/>
      <point x="237" y="709"/>
      <point x="56" y="467"/>
      <point x="56" y="250" type="curve" smooth="yes"/>
      <point x="56" y="78"/>
      <point x="159" y="-10"/>
    </contour>
    <contour>
      <point x="99" y="243" type="curve" smooth="yes"/>
      <point x="99" y="259"/>
      <point x="99" y="274"/>
      <point x="101" y="290" type="curve"/>
      <point x="154" y="385"/>
      <point x="229" y="436"/>
      <point x="316" y="436" type="curve" smooth="yes"/>
      <point x="419" y="436"/>
      <point x="477" y="353"/>
      <point x="477" y="250" type="curve" smooth="yes"/>
      <point x="477" y="221"/>
      <point x="472" y="192"/>
      <point x="463" y="166" type="curve" smooth="yes"/>
      <point x="439" y="81"/>
      <point x="375" y="13"/>
      <point x="282" y="13" type="curve" smooth="yes"/>
      <point x="182" y="13"/>
      <point x="99" y="89"/>
    </contour>
  </outline>
</glyph>
<glyph name="seven" format="2">
  <advance width="555"/>
  <unicode hex="0037"/>
  <outline>
    <contour>
      <point x="246" y="573" type="curve" smooth="yes"/>
      <point x="535" y="573" type="line"/>
      <point x="388" y="424"/>
      <point x="229" y="225"/>
      <point x="163" y="-77" type="curve"/>
      <point x="207" y="-77" type="line"/>
      <point x="271" y="236"/>
      <point x="409" y="411"/>
      <point x="570" y="579" type="curve"/>
      <point x="575" y="609" type="line"/>
      <point x="117" y="609" type="line"/>
      <point x="88" y="437" type="line"/>
      <point x="109" y="437" type="line"/>
      <point x="135" y="528" type="line" smooth="yes"/>
      <point x="145" y="566"/>
      <point x="175" y="573"/>
    </contour>
  </outline>
</glyph>
<glyph name="eight" format="2">
  <advance width="560"/>
  <unicode hex="0038"/>
  <outline>
    <contour>
      <point x="40" y="185" type="curve" smooth="yes"/>
      <point x="40" y="72"/>
      <point x="139" y="-10"/>
      <point x="268" y="-10" type="curve" smooth="yes"/>
      <point x="404" y="-10"/>
      <point x="502" y="81"/>
      <point x="502" y="198" type="curve" smooth="yes"/>
      <point x="502" y="272"/>
      <point x="450" y="345"/>
      <point x="360" y="373" type="curve"/>
      <point x="457" y="388"/>
      <point x="527" y="461"/>
      <point x="527" y="551" type="curve" smooth="yes"/>
      <point x="527" y="648"/>
      <point x="444" y="720"/>
      <point x="340" y="720" type="curve" smooth="yes"/>
      <point x="217" y="720"/>
      <point x="134" y="637"/>
      <point x="134" y="535" type="curve" smooth="yes"/>
      <point x="134" y="466"/>
      <point x="179" y="409"/>
      <point x="245" y="384" type="curve"/>
      <point x="118" y="371"/>
      <point x="40" y="281"/>
    </contour>
    <contour>
      <point x="319" y="388" type="curve" smooth="yes"/>
      <point x="245" y="388"/>
      <point x="175" y="442"/>
      <point x="175" y="535" type="curve" smooth="yes"/>
      <point x="175" y="546"/>
      <point x="176" y="557"/>
      <point x="178" y="568" type="curve" smooth="yes"/>
      <point x="194" y="650"/>
      <point x="257" y="697"/>
      <point x="340" y="697" type="curve" smooth="yes"/>
      <point x="425" y="697"/>
      <point x="486" y="639"/>
      <point x="486" y="551" type="curve" smooth="yes"/>
      <point x="486" y="540"/>
      <point x="485" y="528"/>
      <point x="483" y="517" type="curve" smooth="yes"/>
      <point x="468" y="433"/>
      <point x="399" y="388"/>
    </contour>
    <contour>
      <point x="268" y="13" type="curve" smooth="yes"/>
      <point x="156" y="13"/>
      <point x="83" y="84"/>
      <point x="83" y="185" type="curve" smooth="yes"/>
      <point x="83" y="197"/>
      <point x="84" y="208"/>
      <point x="86" y="220" type="curve" smooth="yes"/>
      <point x="103" y="312"/>
      <point x="177" y="364"/>
      <point x="277" y="364" type="curve"/>
      <point x="394" y="364"/>
      <point x="459" y="295"/>
      <point x="459" y="198" type="curve" smooth="yes"/>
      <point x="459" y="185"/>
      <point x="457" y="169"/>
      <point x="454" y="155" type="curve" smooth="yes"/>
      <point x="432" y="66"/>
      <point x="367" y="13"/>
    </contour>
  </outline>
</glyph>
<glyph name="nine" format="2">
  <advance width="561"/>
  <unicode hex="0039"/>
  <outline>
    <contour>
      <point x="32" y="-70" type="curve"/>
      <point x="34" y="-93" type="line"/>
      <point x="376" y="-85"/>
      <point x="519" y="181"/>
      <point x="519" y="375" type="curve" smooth="yes"/>
      <point x="519" y="517"/>
      <point x="435" y="619"/>
      <point x="294" y="619" type="curve" smooth="yes"/>
      <point x="140" y="619"/>
      <point x="56" y="496"/>
      <point x="56" y="385" type="curve" smooth="yes"/>
      <point x="56" y="259"/>
      <point x="148" y="177"/>
      <point x="264" y="177" type="curve" smooth="yes"/>
      <point x="340" y="177"/>
      <point x="414" y="213"/>
      <point x="466" y="291" type="curve"/>
      <point x="426" y="84"/>
      <point x="274" y="-64"/>
    </contour>
    <contour>
      <point x="99" y="385" type="curve" smooth="yes"/>
      <point x="99" y="400"/>
      <point x="100" y="415"/>
      <point x="103" y="430" type="curve" smooth="yes"/>
      <point x="122" y="527"/>
      <point x="188" y="596"/>
      <point x="294" y="596" type="curve" smooth="yes"/>
      <point x="403" y="596"/>
      <point x="476" y="515"/>
      <point x="476" y="381" type="curve" smooth="yes"/>
      <point x="476" y="367"/>
      <point x="475" y="353"/>
      <point x="473" y="338" type="curve"/>
      <point x="423" y="247"/>
      <point x="350" y="200"/>
      <point x="264" y="200" type="curve" smooth="yes"/>
      <point x="168" y="200"/>
      <point x="99" y="275"/>
    </contour>
  </outline>
</glyph>
<glyph name="equal" format="2">
  <advance width="560"/>
  <unicode hex="003D"/>
  <outline>
    <contour>
      <point x="496" y="425" type="line"/>
      <point x="122" y="425" type="line"/>
      <point x="118" y="402" type="line"/>
      <point x="492" y="402" type="line"/>
    </contour>
    <contour>
      <point x="466" y="251" type="line"/>
      <point x="92" y="251" type="line"/>
      <point x="88" y="228" type="line"/>
      <point x="462" y="228" type="line"/>
    </contour>
  </outline>
</glyph>
<glyph name="question" format="2">
  <advance width="492"/>
  <unicode hex="003F"/>
  <outline>
    <contour>
      <point x="208" y="353" type="curve"/>
      <point x="180" y="193" type="line"/>
      <point x="206" y="193" type="line"/>
      <point x="231" y="336" type="line"/>
      <point x="352" y="358"/>
      <point x="477" y="423"/>
      <point x="477" y="568" type="curve" smooth="yes"/>
      <point x="477" y="680"/>
      <point x="400" y="742"/>
      <point x="284" y="742" type="curve" smooth="yes"/>
      <point x="194" y="742"/>
      <point x="139" y="705"/>
      <point x="111" y="686" type="curve"/>
      <point x="95" y="595" type="line"/>
      <point x="142" y="595" type="line"/>
      <point x="157" y="683" type="line"/>
      <point x="191" y="705"/>
      <point x="231" y="719"/>
      <point x="284" y="719" type="curve" smooth="yes"/>
      <point x="382" y="719"/>
      <point x="434" y="663"/>
      <point x="434" y="568" type="curve" smooth="yes"/>
      <point x="434" y="438"/>
      <point x="347" y="380"/>
    </contour>
    <component base="period" xOffset="81.57894736842105"/>
  </outline>
</glyph>
<glyph name="A" format="2">
  <advance width="658"/>
  <unicode hex="0041"/>
  <anchor x="324.7894736842105" y="721.0" name="top"/>
  <anchor x="527.7894736842105" y="0.0" name="right"/>
  <anchor x="324.7894736842105" y="0.0" name="bottom"/>
  <outline>
    <contour>
      <point x="-51" y="0" type="line"/>
      <point x="135" y="0" type="line"/>
      <point x="140" y="22" type="line"/>
      <point x="125" y="22" type="line" smooth="yes"/>
      <point x="86" y="22"/>
      <point x="48" y="30"/>
      <point x="50" y="42" type="curve"/>
      <point x="170" y="271" type="line"/>
      <point x="453" y="271" type="line"/>
      <point x="494" y="32" type="line"/>
      <point x="493" y="25"/>
      <point x="455" y="22"/>
      <point x="415" y="22" type="curve" smooth="yes"/>
      <point x="398" y="22" type="line"/>
      <point x="394" y="0" type="line"/>
      <point x="591" y="0" type="line"/>
      <point x="595" y="22" type="line"/>
      <point x="590" y="22" type="line"/>
      <point x="556" y="22"/>
      <point x="537" y="24"/>
      <point x="533" y="50" type="curve" smooth="yes"/>
      <point x="417" y="710" type="line"/>
      <point x="400" y="710" type="line"/>
      <point x="400" y="710" type="line"/>
      <point x="371" y="710" type="line"/>
      <point x="31" y="63" type="line" smooth="yes"/>
      <point x="14" y="30"/>
      <point x="-8" y="22"/>
      <point x="-42" y="22" type="curve"/>
      <point x="-47" y="22" type="line"/>
    </contour>
    <contour>
      <point x="182" y="294" type="line"/>
      <point x="383" y="677" type="line"/>
      <point x="449" y="294" type="line"/>
    </contour>
  </outline>
</glyph>
<glyph name="B" format="2">
  <advance width="605"/>
  <unicode hex="0042"/>
  <outline>
    <contour>
      <point x="-20" y="0" type="line"/>
      <point x="280" y="0" type="line" smooth="yes"/>
      <point x="452" y="0"/>
      <point x="536" y="91"/>
      <point x="536" y="205" type="curve" smooth="yes"/>
      <point x="536" y="286"/>
      <point x="483" y="352"/>
      <point x="376" y="373" type="curve"/>
      <point x="501" y="397"/>
      <point x="556" y="474"/>
      <point x="556" y="557" type="curve" smooth="yes"/>
      <point x="556" y="647"/>
      <point x="489" y="710"/>
      <point x="363" y="710" type="curve" smooth="yes"/>
      <point x="106" y="710" type="line"/>
      <point x="102" y="688" type="line"/>
      <point x="113" y="688" type="line" smooth="yes"/>
      <point x="161" y="688"/>
      <point x="192" y="681"/>
      <point x="188" y="657" type="curve" smooth="yes"/>
      <point x="81" y="53" type="line" smooth="yes"/>
      <point x="77" y="28"/>
      <point x="42" y="22"/>
      <point x="-4" y="22" type="curve" smooth="yes"/>
      <point x="-15" y="22" type="line"/>
    </contour>
    <contour>
      <point x="180" y="384" type="line"/>
      <point x="233" y="687" type="line"/>
      <point x="359" y="687" type="line" smooth="yes"/>
      <point x="465" y="687"/>
      <point x="513" y="638"/>
      <point x="513" y="557" type="curve" smooth="yes"/>
      <point x="513" y="460"/>
      <point x="446" y="384"/>
      <point x="311" y="384" type="curve"/>
    </contour>
    <contour>
      <point x="116" y="23" type="line"/>
      <point x="175" y="361" type="line"/>
      <point x="304" y="361" type="line"/>
      <point x="430" y="361"/>
      <point x="491" y="294"/>
      <point x="491" y="204" type="curve" smooth="yes"/>
      <point x="491" y="105"/>
      <point x="431" y="23"/>
      <point x="285" y="23" type="curve" smooth="yes"/>
    </contour>
  </outline>
</glyph>
<glyph name="C" format="2">
  <advance width="670"/>
  <unicode hex="0043"/>
  <anchor x="349.1578947368421" y="741.0" name="top"/>
  <anchor x="349.1578947368421" y="0.0" name="bottom"/>
  <outline>
    <contour>
      <point x="392" y="697" type="curve"/>
      <point x="525" y="697"/>
      <point x="579" y="608"/>
      <point x="601" y="513" type="curve"/>
      <point x="624" y="513" type="line"/>
      <point x="659" y="710" type="line"/>
      <point x="636" y="710" type="line"/>
      <point x="604" y="581" type="line"/>
      <point x="580" y="644"/>
      <point x="518" y="720"/>
      <point x="392" y="720" type="curve"/>
      <point x="187" y="720"/>
      <point x="42" y="539"/>
      <point x="42" y="319" type="curve" smooth="yes"/>
      <point x="42" y="131"/>
      <point x="160" y="-10"/>
      <point x="334" y="-10" type="curve" smooth="yes"/>
      <point x="480" y="-10"/>
      <point x="565" y="69"/>
      <point x="615" y="198" type="curve"/>
      <point x="592" y="212" type="line"/>
      <point x="548" y="95"/>
      <point x="477" y="14"/>
      <point x="334" y="14" type="curve" smooth="yes"/>
      <point x="179" y="14"/>
      <point x="85" y="143"/>
      <point x="85" y="319" type="curve" smooth="yes"/>
      <point x="85" y="532"/>
      <point x="211" y="697"/>
    </contour>
  </outline>
</glyph>
<glyph name="D" format="2">
  <advance width="701"/>
  <unicode hex="0044"/>
  <anchor x="354.5263157894737" y="741.0" name="top"/>
  <anchor x="354.5263157894737" y="0.0" name="bottom"/>
  <outline>
    <contour>
      <point x="102" y="688" type="line"/>
      <point x="114" y="688" type="line" smooth="yes"/>
      <point x="160" y="688"/>
      <point x="193" y="680"/>
      <point x="189" y="657" type="curve" smooth="yes"/>
      <point x="82" y="53" type="line" smooth="yes"/>
      <point x="78" y="28"/>
      <point x="43" y="22"/>
      <point x="-3" y="22" type="curve" smooth="yes"/>
      <point x="-15" y="22" type="line"/>
      <point x="-20" y="0" type="line"/>
      <point x="233" y="0" type="line" smooth="yes"/>
      <point x="549" y="0"/>
      <point x="669" y="191"/>
      <point x="669" y="399" type="curve" smooth="yes"/>
      <point x="669" y="578"/>
      <point x="555" y="710"/>
      <point x="305" y="710" type="curve" smooth="yes"/>
      <point x="106" y="710" type="line"/>
    </contour>
    <contour>
      <point x="304" y="687" type="line" smooth="yes"/>
      <point x="527" y="687"/>
      <point x="626" y="572"/>
      <point x="626" y="399" type="curve" smooth="yes"/>
      <point x="626" y="208"/>
      <point x="526" y="23"/>
      <point x="231" y="23" type="curve" smooth="yes"/>
      <point x="117" y="23" type="line"/>
      <point x="234" y="687" type="line"/>
    </contour>
  </outline>
</glyph>
<glyph name="E" format="2">
  <advance width="581"/>
  <unicode hex="0045"/>
  <anchor x="344.5263157894737" y="741.0" name="top"/>
  <anchor x="404.5263157894737" y="0.0" name="right"/>
  <anchor x="344.5263157894737" y="0.0" name="bottom"/>
  <outline>
    <contour>
      <point x="-20" y="0" type="line"/>
      <point x="470" y="0" type="line"/>
      <point x="502" y="181" type="line"/>
      <point x="480" y="181" type="line"/>
      <point x="449" y="62" type="line" smooth="yes"/>
      <point x="440" y="29"/>
      <point x="406" y="23"/>
      <point x="318" y="23" type="curve" smooth="yes"/>
      <point x="116" y="23" type="line"/>
      <point x="174" y="354" type="line"/>
      <point x="250" y="352"/>
      <point x="397" y="350"/>
      <point x="424" y="347" type="curve"/>
      <point x="430" y="381" type="line"/>
      <point x="402" y="378"/>
      <point x="255" y="376"/>
      <point x="178" y="375" type="curve"/>
      <point x="233" y="687" type="line"/>
      <point x="414" y="687" type="line" smooth="yes"/>
      <point x="495" y="687"/>
      <point x="524" y="681"/>
      <point x="521" y="650" type="curve" smooth="yes"/>
      <point x="512" y="554" type="line"/>
      <point x="534" y="554" type="line"/>
      <point x="562" y="710" type="line"/>
      <point x="106" y="710" type="line"/>
      <point x="102" y="688" type="line"/>
      <point x="113" y="688" type="line" smooth="yes"/>
      <point x="159" y="688"/>
      <point x="192" y="682"/>
      <point x="188" y="657" type="curve" smooth="yes"/>
      <point x="81" y="53" type="line" smooth="yes"/>
      <point x="77" y="28"/>
      <point x="42" y="22"/>
      <point x="-4" y="22" type="curve" smooth="yes"/>
      <point x="-15" y="22" type="line"/>
    </contour>
  </outline>
</glyph>
<glyph name="F" format="2">
  <advance width="565"/>
  <unicode hex="0046"/>
  <outline>
    <contour>
      <point x="233" y="687" type="line"/>
      <point x="416" y="687" type="line" smooth="yes"/>
      <point x="501" y="687"/>
      <point x="531" y="681"/>
      <point x="528" y="650" type="curve" smooth="yes"/>
      <point x="520" y="554" type="line"/>
      <point x="541" y="554" type="line"/>
      <point x="570" y="710" type="line"/>
      <point x="106" y="710" type="line"/>
      <point x="102" y="688" type="line"/>
      <point x="113" y="688" type="line" smooth="yes"/>
      <point x="159" y="688"/>
      <point x="192" y="682"/>
      <point x="188" y="657" type="curve" smooth="yes"/>
      <point x="81" y="53" type="line" smooth="yes"/>
      <point x="77" y="28"/>
      <point x="42" y="22"/>
      <point x="-4" y="22" type="curve" smooth="yes"/>
      <point x="-15" y="22" type="line"/>
      <point x="-20" y="0" type="line"/>
      <point x="219" y="0" type="line"/>
      <point x="223" y="22" type="line"/>
      <point x="206" y="22" type="line" smooth="yes"/>
      <point x="166" y="22"/>
      <point x="116" y="23"/>
      <point x="121" y="53" type="curve" smooth="yes"/>
      <point x="173" y="347" type="line"/>
      <point x="248" y="346"/>
      <point x="401" y="343"/>
      <point x="429" y="340" type="curve"/>
      <point x="435" y="374" type="line"/>
      <point x="407" y="371"/>
      <point x="251" y="369"/>
      <point x="177" y="368" type="curve"/>
    </contour>
  </outline>
</glyph>
<glyph name="G" format="2">
  <advance width="726"/>
  <unicode hex="0047"/>
  <anchor x="366.1578947368421" y="741.0" name="top"/>
  <anchor x="366.1578947368421" y="0.0" name="bottom"/>
  <outline>
    <contour>
      <point x="588" y="81" type="curve"/>
      <point x="624" y="295" type="line"/>
      <point x="629" y="323"/>
      <point x="658" y="329"/>
      <point x="700" y="329" type="curve" smooth="yes"/>
      <point x="704" y="329" type="line"/>
      <point x="708" y="351" type="line"/>
      <point x="503" y="351" type="line"/>
      <point x="499" y="329" type="line"/>
      <point x="513" y="329" type="line" smooth="yes"/>
      <point x="566" y="329"/>
      <point x="591" y="321"/>
      <point x="587" y="296" type="curve"/>
      <point x="552" y="87" type="line"/>
      <point x="536" y="72"/>
      <point x="469" y="13"/>
      <point x="356" y="13" type="curve" smooth="yes"/>
      <point x="170" y="13"/>
      <point x="85" y="152"/>
      <point x="85" y="320" type="curve" smooth="yes"/>
      <point x="85" y="512"/>
      <point x="205" y="697"/>
      <point x="403" y="697" type="curve" smooth="yes"/>
      <point x="537" y="697"/>
      <point x="593" y="618"/>
      <point x="620" y="513" type="curve"/>
      <point x="642" y="513" type="line"/>
      <point x="677" y="710" type="line"/>
      <point x="655" y="710" type="line"/>
      <point x="622" y="579" type="line"/>
      <point x="595" y="649"/>
      <point x="529" y="720"/>
      <point x="403" y="720" type="curve" smooth="yes"/>
      <point x="186" y="720"/>
      <point x="42" y="531"/>
      <point x="42" y="320" type="curve" smooth="yes"/>
      <point x="42" y="139"/>
      <point x="154" y="-10"/>
      <point x="356" y="-10" type="curve" smooth="yes"/>
      <point x="473" y="-10"/>
      <point x="552" y="50"/>
    </contour>
  </outline>
</glyph>
<glyph name="H" format="2">
  <advance width="761"/>
  <unicode hex="0048"/>
  <anchor x="382.5263157894737" y="741.0" name="top"/>
  <anchor x="382.5263157894737" y="0.0" name="bottom"/>
  <outline>
    <contour>
      <point x="-20" y="0" type="line"/>
      <point x="203" y="0" type="line"/>
      <point x="208" y="22" type="line"/>
      <point x="199" y="22" type="line" smooth="yes"/>
      <point x="163" y="22"/>
      <point x="117" y="25"/>
      <point x="118" y="32" type="curve" smooth="yes"/>
      <point x="175" y="355" type="line"/>
      <point x="591" y="355" type="line"/>
      <point x="534" y="32" type="line" smooth="yes"/>
      <point x="533" y="25"/>
      <point x="487" y="22"/>
      <point x="451" y="22" type="curve" smooth="yes"/>
      <point x="442" y="22" type="line"/>
      <point x="437" y="0" type="line"/>
      <point x="660" y="0" type="line"/>
      <point x="664" y="22" type="line"/>
      <point x="653" y="22" type="line" smooth="yes"/>
      <point x="607" y="22"/>
      <point x="574" y="28"/>
      <point x="578" y="53" type="curve" smooth="yes"/>
      <point x="685" y="657" type="line" smooth="yes"/>
      <point x="689" y="682"/>
      <point x="724" y="688"/>
      <point x="770" y="688" type="curve" smooth="yes"/>
      <point x="781" y="688" type="line"/>
      <point x="786" y="710" type="line"/>
      <point x="563" y="710" type="line"/>
      <point x="558" y="688" type="line"/>
      <point x="567" y="688" type="line" smooth="yes"/>
      <point x="603" y="688"/>
      <point x="649" y="685"/>
      <point x="648" y="678" type="curve" smooth="yes"/>
      <point x="595" y="378" type="line"/>
      <point x="179" y="378" type="line"/>
      <point x="232" y="678" type="line" smooth="yes"/>
      <point x="233" y="685"/>
      <point x="279" y="688"/>
      <point x="315" y="688" type="curve" smooth="yes"/>
      <point x="324" y="688" type="line"/>
      <point x="329" y="710" type="line"/>
      <point x="106" y="710" type="line"/>
      <point x="102" y="688" type="line"/>
      <point x="113" y="688" type="line" smooth="yes"/>
      <point x="159" y="688"/>
      <point x="192" y="682"/>
      <point x="188" y="657" type="curve" smooth="yes"/>
      <point x="81" y="53" type="line" smooth="yes"/>
      <point x="77" y="28"/>
      <point x="42" y="22"/>
      <point x="-4" y="22" type="curve" smooth="yes"/>
      <point x="-15" y="22" type="line"/>
    </contour>
  </outline>
</glyph>
<glyph name="I" format="2">
  <advance width="304"/>
  <unicode hex="0049"/>
  <anchor x="154.5263157894737" y="741.0" name="top"/>
  <anchor x="202.5263157894737" y="0.0" name="right"/>
  <anchor x="154.5263157894737" y="0.0" name="bottom"/>
  <outline>
    <contour>
      <point x="81" y="53" type="line" smooth="yes"/>
      <point x="77" y="28"/>
      <point x="41" y="22"/>
      <point x="-4" y="22" type="curve" smooth="yes"/>
      <point x="-15" y="22" type="line"/>
      <point x="-20" y="0" type="line"/>
      <point x="203" y="0" type="line"/>
      <point x="207" y="22" type="line"/>
      <point x="196" y="22" type="line" smooth="yes"/>
      <point x="149" y="22"/>
      <point x="117" y="28"/>
      <point x="121" y="53" type="curve" smooth="yes"/>
      <point x="228" y="657" type="line" smooth="yes"/>
      <point x="232" y="682"/>
      <point x="268" y="688"/>
      <point x="313" y="688" type="curve" smooth="yes"/>
      <point x="324" y="688" type="line"/>
      <point x="329" y="710" type="line"/>
      <point x="106" y="710" type="line"/>
      <point x="102" y="688" type="line"/>
      <point x="113" y="688" type="line" smooth="yes"/>
      <point x="160" y="688"/>
      <point x="192" y="682"/>
      <point x="188" y="657" type="curve" smooth="yes"/>
    </contour>
  </outline>
</glyph>
<glyph name="J" format="2">
  <advance width="509"/>
  <unicode hex="004A"/>
  <anchor x="351.0" y="741.0" name="top"/>
  <outline>
    <contour>
      <point x="396" y="657" type="curve" smooth="yes"/>
      <point x="317" y="207" type="line" smooth="yes"/>
      <point x="293" y="69"/>
      <point x="244" y="13"/>
      <point x="147" y="13" type="curve" smooth="yes"/>
      <point x="100" y="13"/>
      <point x="64" y="26"/>
      <point x="39" y="46" type="curve"/>
      <point x="54" y="127" type="line"/>
      <point x="6" y="127" type="line"/>
      <point x="-10" y="47" type="line"/>
      <point x="7" y="28"/>
      <point x="62" y="-10"/>
      <point x="147" y="-10" type="curve" smooth="yes"/>
      <point x="258" y="-10"/>
      <point x="328" y="45"/>
      <point x="356" y="201" type="curve" smooth="yes"/>
      <point x="436" y="657" type="line" smooth="yes"/>
      <point x="441" y="682"/>
      <point x="475" y="688"/>
      <point x="521" y="688" type="curve" smooth="yes"/>
      <point x="532" y="688" type="line"/>
      <point x="536" y="710" type="line"/>
      <point x="309" y="710" type="line"/>
      <point x="305" y="688" type="line"/>
      <point x="321" y="688" type="line" smooth="yes"/>
      <point x="367" y="688"/>
      <point x="401" y="682"/>
    </contour>
  </outline>
</glyph>
<glyph name="K" format="2">
  <advance width="672"/>
  <unicode hex="004B"/>
  <anchor x="335.5263157894737" y="741.0" name="top"/>
  <anchor x="335.5263157894737" y="0.0" name="bottom"/>
  <outline>
    <contour>
      <point x="-20" y="0" type="line"/>
      <point x="203" y="0" type="line"/>
      <point x="208" y="22" type="line"/>
      <point x="199" y="22" type="line" smooth="yes"/>
      <point x="163" y="22"/>
      <point x="117" y="25"/>
      <point x="118" y="32" type="curve" smooth="yes"/>
      <point x="232" y="678" type="line" smooth="yes"/>
      <point x="233" y="685"/>
      <point x="279" y="688"/>
      <point x="315" y="688" type="curve" smooth="yes"/>
      <point x="324" y="688" type="line"/>
      <point x="329" y="710" type="line"/>
      <point x="106" y="710" type="line"/>
      <point x="102" y="688" type="line"/>
      <point x="113" y="688" type="line" smooth="yes"/>
      <point x="159" y="688"/>
      <point x="192" y="682"/>
      <point x="188" y="657" type="curve" smooth="yes"/>
      <point x="81" y="53" type="line" smooth="yes"/>
      <point x="77" y="28"/>
      <point x="42" y="22"/>
      <point x="-4" y="22" type="curve" smooth="yes"/>
      <point x="-15" y="22" type="line"/>
    </contour>
    <contour>
      <point x="404" y="0" type="line"/>
      <point x="610" y="0" type="line"/>
      <point x="615" y="22" type="line"/>
      <point x="603" y="22" type="line" smooth="yes"/>
      <point x="561" y="22"/>
      <point x="550" y="27"/>
      <point x="529" y="53" type="curve" smooth="yes"/>
      <point x="259" y="375" type="line"/>
      <point x="573" y="660" type="line" smooth="yes"/>
      <point x="595" y="681"/>
      <point x="616" y="688"/>
      <point x="648" y="688" type="curve" smooth="yes"/>
      <point x="666" y="688" type="line"/>
      <point x="671" y="710" type="line"/>
      <point x="475" y="710" type="line"/>
      <point x="471" y="688" type="line"/>
      <point x="480" y="688" type="line" smooth="yes"/>
      <point x="515" y="688"/>
      <point x="554" y="683"/>
      <point x="555" y="677" type="curve"/>
      <point x="219" y="369" type="line"/>
      <point x="218" y="364" type="line"/>
      <point x="495" y="33" type="line"/>
      <point x="494" y="25"/>
      <point x="452" y="22"/>
      <point x="418" y="22" type="curve" smooth="yes"/>
      <point x="409" y="22" type="line"/>
    </contour>
  </outline>
</glyph>
<glyph name="L" format="2">
  <advance width="564"/>
  <unicode hex="004C"/>
  <anchor x="348.5263157894737" y="741.0" name="top"/>
  <anchor x="436.5263157894737" y="710.0" name="right"/>
  <anchor x="436.5263157894737" y="410.0" name="mid"/>
  <anchor x="348.5263157894737" y="0.0" name="bottom"/>
  <outline>
    <contour>
      <point x="333" y="710" type="line"/>
      <point x="106" y="710" type="line"/>
      <point x="102" y="688" type="line"/>
      <point x="113" y="688" type="line" smooth="yes"/>
      <point x="159" y="688"/>
      <point x="192" y="682"/>
      <point x="188" y="657" type="curve" smooth="yes"/>
      <point x="81" y="53" type="line" smooth="yes"/>
      <point x="77" y="28"/>
      <point x="42" y="22"/>
      <point x="-4" y="22" type="curve" smooth="yes"/>
      <point x="-15" y="22" type="line"/>
      <point x="-20" y="0" type="line"/>
      <point x="455" y="0" type="line"/>
      <point x="489" y="193" type="line"/>
      <point x="467" y="193" type="line"/>
      <point x="434" y="67" type="line" smooth="yes"/>
      <point x="424" y="30"/>
      <point x="393" y="23"/>
      <point x="299" y="23" type="curve" smooth="yes"/>
      <point x="116" y="23" type="line"/>
      <point x="228" y="657" type="line" smooth="yes"/>
      <point x="232" y="682"/>
      <point x="268" y="688"/>
      <point x="317" y="688" type="curve" smooth="yes"/>
      <point x="328" y="688" type="line"/>
    </contour>
  </outline>
</glyph>
<glyph name="M" format="2">
  <advance width="866"/>
  <unicode hex="004D"/>
  <anchor x="374.2631578947368" y="0.0" name="bottom"/>
  <outline>
    <contour>
      <point x="-19" y="0" type="line"/>
      <point x="190" y="0" type="line"/>
      <point x="193" y="22" type="line"/>
      <point x="185" y="22" type="line" smooth="yes"/>
      <point x="149" y="22"/>
      <point x="104" y="28"/>
      <point x="105" y="35" type="curve" smooth="yes"/>
      <point x="220" y="688" type="line"/>
      <point x="352" y="-2" type="line"/>
      <point x="381" y="-2" type="line"/>
      <point x="755" y="687" type="line"/>
      <point x="639" y="32" type="line" smooth="yes"/>
      <point x="638" y="25"/>
      <point x="598" y="22"/>
      <point x="561" y="22" type="curve" smooth="yes"/>
      <point x="553" y="22" type="line"/>
      <point x="549" y="0" type="line"/>
      <point x="766" y="0" type="line"/>
      <point x="769" y="22" type="line"/>
      <point x="758" y="22" type="line" smooth="yes"/>
      <point x="712" y="22"/>
      <point x="678" y="28"/>
      <point x="683" y="53" type="curve" smooth="yes"/>
      <point x="790" y="657" type="line" smooth="yes"/>
      <point x="794" y="682"/>
      <point x="829" y="688"/>
      <point x="875" y="688" type="curve" smooth="yes"/>
      <point x="886" y="688" type="line"/>
      <point x="891" y="710" type="line"/>
      <point x="739" y="710" type="line"/>
      <point x="381" y="48" type="line"/>
      <point x="257" y="710" type="line"/>
      <point x="106" y="710" type="line"/>
      <point x="101" y="688" type="line"/>
      <point x="112" y="688" type="line" smooth="yes"/>
      <point x="158" y="688"/>
      <point x="192" y="682"/>
      <point x="187" y="657" type="curve" smooth="yes"/>
      <point x="82" y="57" type="line" smooth="yes"/>
      <point x="77" y="30"/>
      <point x="41" y="22"/>
      <point x="-5" y="22" type="curve"/>
      <point x="-16" y="22" type="line"/>
    </contour>
  </outline>
</glyph>
<glyph name="N" format="2">
  <advance width="728"/>
  <unicode hex="004E"/>
  <anchor x="373.7368421052632" y="741.0" name="top"/>
  <anchor x="373.7368421052632" y="0.0" name="bottom"/>
  <outline>
    <contour>
      <point x="-20" y="0" type="line"/>
      <point x="200" y="0" type="line"/>
      <point x="205" y="22" type="line"/>
      <point x="191" y="22" type="line" smooth="yes"/>
      <point x="150" y="22"/>
      <point x="105" y="31"/>
      <point x="106" y="38" type="curve" smooth="yes"/>
      <point x="218" y="677" type="line"/>
      <point x="499" y="0" type="line"/>
      <point x="535" y="0" type="line"/>
      <point x="650" y="650" type="line" smooth="yes"/>
      <point x="654" y="677"/>
      <point x="690" y="688"/>
      <point x="737" y="688" type="curve" smooth="yes"/>
      <point x="748" y="688" type="line"/>
      <point x="753" y="710" type="line"/>
      <point x="533" y="710" type="line"/>
      <point x="528" y="688" type="line"/>
      <point x="542" y="688" type="line" smooth="yes"/>
      <point x="583" y="688"/>
      <point x="628" y="679"/>
      <point x="627" y="672" type="curve" smooth="yes"/>
      <point x="518" y="54" type="line"/>
      <point x="247" y="710" type="line"/>
      <point x="106" y="710" type="line"/>
      <point x="102" y="688" type="line"/>
      <point x="113" y="688" type="line" smooth="yes"/>
      <point x="159" y="688"/>
      <point x="192" y="682"/>
      <point x="188" y="657" type="curve" smooth="yes"/>
      <point x="83" y="60" type="line" smooth="yes"/>
      <point x="78" y="33"/>
      <point x="42" y="22"/>
      <point x="-4" y="22" type="curve" smooth="yes"/>
      <point x="-15" y="22" type="line"/>
    </contour>
  </outline>
</glyph>
<glyph name="O" format="2">
  <advance width="732"/>
  <unicode hex="004F"/>
  <anchor x="368.6842105263158" y="741.0" name="top"/>
  <anchor x="368.6842105263158" y="0.0" name="bottom"/>
  <outline>
    <contour>
      <point x="341" y="-10" type="curve" smooth="yes"/>
      <point x="560" y="-10"/>
      <point x="699" y="189"/>
      <point x="699" y="389" type="curve" smooth="yes"/>
      <point x="699" y="562"/>
      <point x="590" y="720"/>
      <point x="399" y="720" type="curve" smooth="yes"/>
      <point x="180" y="720"/>
      <point x="42" y="521"/>
      <point x="42" y="321" type="curve" smooth="yes"/>
      <point x="42" y="149"/>
      <point x="150" y="-10"/>
    </contour>
    <contour>
      <point x="341" y="13" type="curve" smooth="yes"/>
      <point x="166" y="13"/>
      <point x="85" y="162"/>
      <point x="85" y="321" type="curve" smooth="yes"/>
      <point x="85" y="361"/>
      <point x="90" y="400"/>
      <point x="101" y="438" type="curve" smooth="yes"/>
      <point x="139" y="579"/>
      <point x="243" y="697"/>
      <point x="399" y="697" type="curve" smooth="yes"/>
      <point x="574" y="697"/>
      <point x="656" y="550"/>
      <point x="656" y="389" type="curve" smooth="yes"/>
      <point x="656" y="349"/>
      <point x="650" y="309"/>
      <point x="639" y="271" type="curve" smooth="yes"/>
      <point x="601" y="131"/>
      <point x="497" y="13"/>
    </contour>
  </outline>
</glyph>
<glyph name="P" format="2">
  <advance width="587"/>
  <unicode hex="0050"/>
  <outline>
    <contour>
      <point x="106" y="710" type="line"/>
      <point x="102" y="688" type="line"/>
      <point x="113" y="688" type="line" smooth="yes"/>
      <point x="159" y="688"/>
      <point x="192" y="682"/>
      <point x="188" y="657" type="curve" smooth="yes"/>
      <point x="81" y="53" type="line" smooth="yes"/>
      <point x="77" y="28"/>
      <point x="42" y="22"/>
      <point x="-4" y="22" type="curve" smooth="yes"/>
      <point x="-15" y="22" type="line"/>
      <point x="-20" y="0" type="line"/>
      <point x="216" y="0" type="line"/>
      <point x="220" y="22" type="line"/>
      <point x="193" y="22" type="line" smooth="yes"/>
      <point x="159" y="22"/>
      <point x="116" y="25"/>
      <point x="117" y="32" type="curve" smooth="yes"/>
      <point x="165" y="305" type="line"/>
      <point x="305" y="305" type="line" smooth="yes"/>
      <point x="502" y="305"/>
      <point x="584" y="414"/>
      <point x="584" y="530" type="curve" smooth="yes"/>
      <point x="584" y="637"/>
      <point x="510" y="710"/>
      <point x="344" y="710" type="curve" smooth="yes"/>
    </contour>
    <contour>
      <point x="170" y="328" type="line"/>
      <point x="233" y="687" type="line"/>
      <point x="344" y="687" type="line" smooth="yes"/>
      <point x="485" y="687"/>
      <point x="541" y="626"/>
      <point x="541" y="530" type="curve" smooth="yes"/>
      <point x="541" y="423"/>
      <point x="481" y="328"/>
      <point x="305" y="328" type="curve" smooth="yes"/>
    </contour>
  </outline>
</glyph>
<glyph name="Q" format="2">
  <advance width="732"/>
  <unicode hex="0051"/>
  <outline>
    <contour>
      <point x="504" y="-179" type="curve" smooth="yes"/>
      <point x="544" y="-179"/>
      <point x="581" y="-173"/>
      <point x="610" y="-164" type="curve"/>
      <point x="618" y="-122" type="line"/>
      <point x="579" y="-134"/>
      <point x="535" y="-143"/>
      <point x="490" y="-143" type="curve" smooth="yes"/>
      <point x="405" y="-143"/>
      <point x="347" y="-111"/>
      <point x="347" y="-24" type="curve" smooth="yes"/>
      <point x="347" y="-20"/>
      <point x="347" y="-15"/>
      <point x="348" y="-10" type="curve"/>
      <point x="563" y="-6"/>
      <point x="699" y="191"/>
      <point x="699" y="389" type="curve" smooth="yes"/>
      <point x="699" y="562"/>
      <point x="590" y="720"/>
      <point x="399" y="720" type="curve" smooth="yes"/>
      <point x="180" y="720"/>
      <point x="42" y="521"/>
      <point x="42" y="321" type="curve" smooth="yes"/>
      <point x="42" y="154"/>
      <point x="144" y="0"/>
      <point x="324" y="-10" type="curve"/>
      <point x="322" y="-18"/>
      <point x="322" y="-27"/>
      <point x="322" y="-34" type="curve" smooth="yes"/>
      <point x="322" y="-136"/>
      <point x="401" y="-179"/>
    </contour>
    <contour>
      <point x="341" y="13" type="curve" smooth="yes"/>
      <point x="166" y="13"/>
      <point x="85" y="162"/>
      <point x="85" y="321" type="curve" smooth="yes"/>
      <point x="85" y="361"/>
      <point x="90" y="400"/>
      <point x="101" y="438" type="curve" smooth="yes"/>
      <point x="139" y="579"/>
      <point x="243" y="697"/>
      <point x="399" y="697" type="curve" smooth="yes"/>
      <point x="574" y="697"/>
      <point x="656" y="550"/>
      <point x="656" y="389" type="curve" smooth="yes"/>
      <point x="656" y="349"/>
      <point x="650" y="309"/>
      <point x="639" y="271" type="curve" smooth="yes"/>
      <point x="601" y="131"/>
      <point x="497" y="13"/>
    </contour>
  </outline>
</glyph>
<glyph name="R" format="2">
  <advance width="640"/>
  <unicode hex="0052"/>
  <anchor x="354.5263157894737" y="741.0" name="top"/>
  <anchor x="354.5263157894737" y="0.0" name="bottom"/>
  <outline>
    <contour>
      <point x="-20" y="0" type="line"/>
      <point x="198" y="0" type="line"/>
      <point x="202" y="22" type="line"/>
      <point x="193" y="22" type="line" smooth="yes"/>
      <point x="159" y="22"/>
      <point x="116" y="25"/>
      <point x="117" y="32" type="curve" smooth="yes"/>
      <point x="169" y="324" type="line"/>
      <point x="305" y="324" type="line" smooth="yes"/>
      <point x="319" y="324"/>
      <point x="332" y="324"/>
      <point x="345" y="326" type="curve"/>
      <point x="474" y="0" type="line"/>
      <point x="571" y="0" type="line"/>
      <point x="576" y="22" type="line"/>
      <point x="563" y="22" type="line" smooth="yes"/>
      <point x="528" y="22"/>
      <point x="507" y="28"/>
      <point x="497" y="53" type="curve" smooth="yes"/>
      <point x="382" y="331" type="line"/>
      <point x="499" y="354"/>
      <point x="567" y="431"/>
      <point x="567" y="535" type="curve" smooth="yes"/>
      <point x="567" y="639"/>
      <point x="490" y="710"/>
      <point x="339" y="710" type="curve" smooth="yes"/>
      <point x="106" y="710" type="line"/>
      <point x="102" y="688" type="line"/>
      <point x="113" y="688" type="line" smooth="yes"/>
      <point x="159" y="688"/>
      <point x="192" y="682"/>
      <point x="188" y="657" type="curve" smooth="yes"/>
      <point x="81" y="53" type="line" smooth="yes"/>
      <point x="77" y="28"/>
      <point x="42" y="22"/>
      <point x="-4" y="22" type="curve" smooth="yes"/>
      <point x="-15" y="22" type="line"/>
    </contour>
    <contour>
      <point x="332" y="687" type="line" smooth="yes"/>
      <point x="455" y="687"/>
      <point x="524" y="632"/>
      <point x="524" y="536" type="curve" smooth="yes"/>
      <point x="524" y="427"/>
      <point x="456" y="347"/>
      <point x="309" y="347" type="curve" smooth="yes"/>
      <point x="173" y="347" type="line"/>
      <point x="233" y="687" type="line"/>
    </contour>
  </outline>
</glyph>
<glyph name="S" format="2">
  <advance width="605"/>
  <unicode hex="0053"/>
  <anchor x="343.7894736842105" y="741.0" name="top"/>
  <anchor x="343.7894736842105" y="0.0" name="bottom"/>
  <outline>
    <contour>
      <point x="312" y="-10" type="curve" smooth="yes"/>
      <point x="430" y="-10"/>
      <point x="527" y="60"/>
      <point x="527" y="182" type="curve" smooth="yes"/>
      <point x="527" y="292"/>
      <point x="428" y="340"/>
      <point x="331" y="385" type="curve" smooth="yes"/>
      <point x="240" y="428"/>
      <point x="159" y="464"/>
      <point x="159" y="555" type="curve" smooth="yes"/>
      <point x="159" y="634"/>
      <point x="209" y="697"/>
      <point x="321" y="697" type="curve" smooth="yes"/>
      <point x="436" y="697"/>
      <point x="496" y="621"/>
      <point x="508" y="533" type="curve"/>
      <point x="532" y="533" type="line"/>
      <point x="564" y="710" type="line"/>
      <point x="541" y="710" type="line"/>
      <point x="513" y="599" type="line"/>
      <point x="489" y="664"/>
      <point x="424" y="720"/>
      <point x="321" y="720" type="curve" smooth="yes"/>
      <point x="194" y="720"/>
      <point x="122" y="646"/>
      <point x="122" y="553" type="curve" smooth="yes"/>
      <point x="122" y="440"/>
      <point x="218" y="400"/>
      <point x="311" y="355" type="curve" smooth="yes"/>
      <point x="399" y="313"/>
      <point x="489" y="271"/>
      <point x="489" y="178" type="curve" smooth="yes"/>
      <point x="489" y="71"/>
      <point x="411" y="13"/>
      <point x="312" y="13" type="curve" smooth="yes"/>
      <point x="186" y="13"/>
      <point x="90" y="92"/>
      <point x="74" y="214" type="curve"/>
      <point x="46" y="214" type="line"/>
      <point x="7" y="0" type="line"/>
      <point x="31" y="0" type="line"/>
      <point x="67" y="148" type="line"/>
      <point x="102" y="48"/>
      <point x="197" y="-10"/>
    </contour>
  </outline>
</glyph>
<glyph name="T" format="2">
  <advance width="625"/>
  <unicode hex="0054"/>
  <anchor x="315.3157894736842" y="741.0" name="top"/>
  <anchor x="315.3157894736842" y="0.0" name="bottom"/>
  <outline>
    <contour>
      <point x="240" y="53" type="line" smooth="yes"/>
      <point x="235" y="28"/>
      <point x="200" y="22"/>
      <point x="152" y="22" type="curve" smooth="yes"/>
      <point x="136" y="22" type="line"/>
      <point x="132" y="0" type="line"/>
      <point x="369" y="0" type="line"/>
      <point x="374" y="22" type="line"/>
      <point x="358" y="22" type="line" smooth="yes"/>
      <point x="310" y="22"/>
      <point x="275" y="28"/>
      <point x="280" y="53" type="curve" smooth="yes"/>
      <point x="392" y="687" type="line"/>
      <point x="503" y="687" type="line" smooth="yes"/>
      <point x="580" y="687"/>
      <point x="612" y="681"/>
      <point x="609" y="650" type="curve" smooth="yes"/>
      <point x="599" y="550" type="line"/>
      <point x="620" y="550" type="line"/>
      <point x="649" y="710" type="line"/>
      <point x="104" y="710" type="line"/>
      <point x="75" y="550" type="line"/>
      <point x="96" y="550" type="line"/>
      <point x="125" y="650" type="line" smooth="yes"/>
      <point x="134" y="681"/>
      <point x="166" y="687"/>
      <point x="242" y="687" type="curve" smooth="yes"/>
      <point x="352" y="687" type="line"/>
    </contour>
  </outline>
</glyph>
<glyph name="U" format="2">
  <advance width="758"/>
  <unicode hex="0055"/>
  <anchor x="381.4736842105263" y="741.0" name="top"/>
  <anchor x="435.4736842105263" y="0.0" name="right"/>
  <anchor x="381.4736842105263" y="0.0" name="bottom"/>
  <outline>
    <contour>
      <point x="176" y="374" type="curve" smooth="yes"/>
      <point x="230" y="678" type="line" smooth="yes"/>
      <point x="231" y="685"/>
      <point x="278" y="688"/>
      <point x="314" y="688" type="curve" smooth="yes"/>
      <point x="323" y="688" type="line"/>
      <point x="327" y="710" type="line"/>
      <point x="104" y="710" type="line"/>
      <point x="101" y="688" type="line"/>
      <point x="112" y="688" type="line" smooth="yes"/>
      <point x="158" y="688"/>
      <point x="191" y="682"/>
      <point x="187" y="657" type="curve" smooth="yes"/>
      <point x="136" y="374" type="line" smooth="yes"/>
      <point x="122" y="295"/>
      <point x="115" y="254"/>
      <point x="115" y="215" type="curve" smooth="yes"/>
      <point x="115" y="61"/>
      <point x="211" y="-10"/>
      <point x="348" y="-10" type="curve" smooth="yes"/>
      <point x="479" y="-10"/>
      <point x="579" y="72"/>
      <point x="611" y="252" type="curve" smooth="yes"/>
      <point x="680" y="647" type="line" smooth="yes"/>
      <point x="686" y="677"/>
      <point x="722" y="688"/>
      <point x="768" y="688" type="curve" smooth="yes"/>
      <point x="779" y="688" type="line"/>
      <point x="782" y="710" type="line"/>
      <point x="574" y="710" type="line"/>
      <point x="570" y="688" type="line"/>
      <point x="578" y="688" type="line" smooth="yes"/>
      <point x="611" y="688"/>
      <point x="660" y="681"/>
      <point x="658" y="667" type="curve" smooth="yes"/>
      <point x="585" y="256" type="line" smooth="yes"/>
      <point x="557" y="93"/>
      <point x="471" y="16"/>
      <point x="351" y="16" type="curve" smooth="yes"/>
      <point x="238" y="16"/>
      <point x="155" y="76"/>
      <point x="155" y="215" type="curve" smooth="yes"/>
      <point x="155" y="256"/>
      <point x="163" y="298"/>
    </contour>
  </outline>
</glyph>
<glyph name="V" format="2">
  <advance width="659"/>
  <unicode hex="0056"/>
  <outline>
    <contour>
      <point x="633" y="648" type="line" smooth="yes"/>
      <point x="651" y="682"/>
      <point x="673" y="688"/>
      <point x="706" y="688" type="curve"/>
      <point x="711" y="688" type="line"/>
      <point x="715" y="710" type="line"/>
      <point x="526" y="710" type="line"/>
      <point x="522" y="688" type="line"/>
      <point x="537" y="688" type="line" smooth="yes"/>
      <point x="573" y="688"/>
      <point x="617" y="680"/>
      <point x="615" y="669" type="curve"/>
      <point x="281" y="31" type="line"/>
      <point x="171" y="678" type="line"/>
      <point x="172" y="685"/>
      <point x="218" y="688"/>
      <point x="254" y="688" type="curve" smooth="yes"/>
      <point x="271" y="688" type="line"/>
      <point x="276" y="710" type="line"/>
      <point x="74" y="710" type="line"/>
      <point x="70" y="688" type="line"/>
      <point x="75" y="688" type="line"/>
      <point x="107" y="688"/>
      <point x="128" y="686"/>
      <point x="132" y="660" type="curve" smooth="yes"/>
      <point x="248" y="0" type="line"/>
      <point x="293" y="0" type="line"/>
    </contour>
  </outline>
</glyph>
<glyph name="W" format="2">
  <advance width="950"/>
  <unicode hex="0057"/>
  <anchor x="492.6842105263158" y="741.0" name="top"/>
  <outline>
    <contour>
      <point x="75" y="710" type="line"/>
      <point x="70" y="688" type="line"/>
      <point x="75" y="688" type="line" smooth="yes"/>
      <point x="110" y="688"/>
      <point x="133" y="686"/>
      <point x="136" y="656" type="curve" smooth="yes"/>
      <point x="201" y="0" type="line"/>
      <point x="240" y="0" type="line"/>
      <point x="532" y="656" type="line"/>
      <point x="603" y="0" type="line"/>
      <point x="644" y="0" type="line"/>
      <point x="924" y="649" type="line" smooth="yes"/>
      <point x="938" y="680"/>
      <point x="965" y="688"/>
      <point x="997" y="688" type="curve" smooth="yes"/>
      <point x="1002" y="688" type="line"/>
      <point x="1006" y="710" type="line"/>
      <point x="817" y="710" type="line"/>
      <point x="812" y="688" type="line"/>
      <point x="827" y="688" type="line" smooth="yes"/>
      <point x="864" y="688"/>
      <point x="906" y="680"/>
      <point x="904" y="669" type="curve"/>
      <point x="637" y="47" type="line"/>
      <point x="566" y="710" type="line"/>
      <point x="529" y="710" type="line"/>
      <point x="235" y="48" type="line"/>
      <point x="174" y="678" type="line"/>
      <point x="175" y="685"/>
      <point x="221" y="688"/>
      <point x="257" y="688" type="curve" smooth="yes"/>
      <point x="274" y="688" type="line"/>
      <point x="279" y="710" type="line"/>
    </contour>
  </outline>
</glyph>
<glyph name="X" format="2">
  <advance width="666"/>
  <unicode hex="0058"/>
  <outline>
    <contour>
      <point x="-46" y="0" type="line"/>
      <point x="160" y="0" type="line"/>
      <point x="165" y="22" type="line"/>
      <point x="150" y="22" type="line" smooth="yes"/>
      <point x="114" y="22"/>
      <point x="68" y="29"/>
      <point x="70" y="41" type="curve"/>
      <point x="326" y="345" type="line"/>
      <point x="479" y="33" type="line"/>
      <point x="477" y="26"/>
      <point x="434" y="22"/>
      <point x="399" y="22" type="curve" smooth="yes"/>
      <point x="382" y="22" type="line"/>
      <point x="378" y="0" type="line"/>
      <point x="588" y="0" type="line"/>
      <point x="593" y="22" type="line"/>
      <point x="583" y="22" type="line" smooth="yes"/>
      <point x="548" y="22"/>
      <point x="529" y="23"/>
      <point x="514" y="52" type="curve" smooth="yes"/>
      <point x="357" y="369" type="line"/>
      <point x="591" y="644" type="line" smooth="yes"/>
      <point x="619" y="678"/>
      <point x="650" y="688"/>
      <point x="683" y="688" type="curve" smooth="yes"/>
      <point x="688" y="688" type="line"/>
      <point x="692" y="710" type="line"/>
      <point x="491" y="710" type="line"/>
      <point x="486" y="688" type="line"/>
      <point x="501" y="688" type="line" smooth="yes"/>
      <point x="541" y="688"/>
      <point x="581" y="680"/>
      <point x="579" y="669" type="curve"/>
      <point x="344" y="390" type="line"/>
      <point x="205" y="678" type="line"/>
      <point x="206" y="685"/>
      <point x="251" y="688"/>
      <point x="287" y="688" type="curve" smooth="yes"/>
      <point x="304" y="688" type="line"/>
      <point x="308" y="710" type="line"/>
      <point x="102" y="710" type="line"/>
      <point x="97" y="688" type="line"/>
      <point x="104" y="688" type="line" smooth="yes"/>
      <point x="140" y="688"/>
      <point x="157" y="687"/>
      <point x="171" y="659" type="curve" smooth="yes"/>
      <point x="314" y="368" type="line"/>
      <point x="58" y="67" type="line" smooth="yes"/>
      <point x="28" y="32"/>
      <point x="0" y="22"/>
      <point x="-31" y="22" type="curve" smooth="yes"/>
      <point x="-41" y="22" type="line"/>
    </contour>
  </outline>
</glyph>
<glyph name="Y" format="2">
  <advance width="642"/>
  <unicode hex="0059"/>
  <anchor x="323.3157894736842" y="741.0" name="top"/>
  <anchor x="323.3157894736842" y="0.0" name="bottom"/>
  <outline>
    <contour>
      <point x="385" y="22" type="line"/>
      <point x="369" y="22" type="line" smooth="yes"/>
      <point x="320" y="22"/>
      <point x="286" y="28"/>
      <point x="291" y="53" type="curve" smooth="yes"/>
      <point x="335" y="299" type="line"/>
      <point x="603" y="652" type="line" smooth="yes"/>
      <point x="628" y="684"/>
      <point x="656" y="688"/>
      <point x="687" y="688" type="curve" smooth="yes"/>
      <point x="692" y="688" type="line"/>
      <point x="697" y="710" type="line"/>
      <point x="500" y="710" type="line"/>
      <point x="495" y="688" type="line"/>
      <point x="510" y="688" type="line" smooth="yes"/>
      <point x="549" y="688"/>
      <point x="587" y="681"/>
      <point x="585" y="669" type="curve"/>
      <point x="325" y="326" type="line"/>
      <point x="179" y="678" type="line"/>
      <point x="180" y="685"/>
      <point x="226" y="688"/>
      <point x="262" y="688" type="curve" smooth="yes"/>
      <point x="279" y="688" type="line"/>
      <point x="283" y="710" type="line"/>
      <point x="75" y="710" type="line"/>
      <point x="71" y="688" type="line"/>
      <point x="76" y="688" type="line" smooth="yes"/>
      <point x="108" y="688"/>
      <point x="133" y="688"/>
      <point x="142" y="665" type="curve" smooth="yes"/>
      <point x="295" y="300" type="line"/>
      <point x="251" y="53" type="line" smooth="yes"/>
      <point x="246" y="28"/>
      <point x="210" y="22"/>
      <point x="163" y="22" type="curve" smooth="yes"/>
      <point x="147" y="22" type="line"/>
      <point x="143" y="0" type="line"/>
      <point x="380" y="0" type="line"/>
    </contour>
  </outline>
</glyph>
<glyph name="Z" format="2">
  <advance width="576"/>
  <unicode hex="005A"/>
  <anchor x="302.2631578947368" y="741.0" name="top"/>
  <anchor x="302.2631578947368" y="0.0" name="bottom"/>
  <outline>
    <contour>
      <point x="513" y="183" type="line"/>
      <point x="492" y="183" type="line"/>
      <point x="461" y="68" type="line" smooth="yes"/>
      <point x="451" y="29"/>
      <point x="421" y="23"/>
      <point x="326" y="23" type="curve" smooth="yes"/>
      <point x="32" y="23" type="line"/>
      <point x="583" y="686" type="line"/>
      <point x="588" y="710" type="line"/>
      <point x="126" y="710" type="line"/>
      <point x="98" y="551" type="line"/>
      <point x="119" y="551" type="line"/>
      <point x="145" y="646" type="line" smooth="yes"/>
      <point x="155" y="681"/>
      <point x="187" y="687"/>
      <point x="280" y="687" type="curve" smooth="yes"/>
      <point x="538" y="687" type="line"/>
      <point x="-12" y="26" type="line"/>
      <point x="-17" y="0" type="line"/>
      <point x="481" y="0" type="line"/>
    </contour>
  </outline>
</glyph>
<glyph name="bracketleft" format="2">
  <advance width="267"/>
  <unicode hex="005B"/>
  <outline>
    <contour>
      <point x="172" y="-108" type="line"/>
      <point x="32" y="-108" type="line"/>
      <point x="180" y="728" type="line"/>
      <point x="316" y="728" type="line"/>
      <point x="320" y="750" type="line"/>
      <point x="149" y="750" type="line"/>
      <point x="-7" y="-130" type="line"/>
      <point x="168" y="-130" type="line"/>
    </contour>
  </outline>
</glyph>
<glyph name="a" format="2">
  <advance width="531"/>
  <unicode hex="0061"/>
  <anchor x="238.8421052631579" y="557.7368421052631" name="top"/>
  <anchor x="368.2105263157895" y="-10.0" name="right"/>
  <anchor x="241.21052631578948" y="0.0" name="bottom"/>
  <outline>
    <contour>
      <point x="175" y="-11" type="curve" smooth="yes"/>
      <point x="256" y="-11"/>
      <point x="317" y="50"/>
      <point x="375" y="151" type="curve"/>
      <point x="368" y="118"/>
      <point x="363" y="80"/>
      <point x="363" y="57" type="curve" smooth="yes"/>
      <point x="363" y="12"/>
      <point x="393" y="-7"/>
      <point x="435" y="-7" type="curve" smooth="yes"/>
      <point x="459" y="-7"/>
      <point x="486" y="3"/>
      <point x="497" y="11" type="curve"/>
      <point x="501" y="32" type="line"/>
      <point x="494" y="30"/>
      <point x="470" y="17"/>
      <point x="440" y="17" type="curve" smooth="yes"/>
      <point x="415" y="17"/>
      <point x="403" y="29"/>
      <point x="403" y="57" type="curve" smooth="yes"/>
      <point x="403" y="78"/>
      <point x="409" y="113"/>
      <point x="413" y="138" type="curve" smooth="yes"/>
      <point x="480" y="514" type="line"/>
      <point x="461" y="514" type="line"/>
      <point x="433" y="444" type="line"/>
      <point x="405" y="496"/>
      <point x="355" y="523"/>
      <point x="296" y="523" type="curve" smooth="yes"/>
      <point x="141" y="523"/>
      <point x="36" y="342"/>
      <point x="36" y="180" type="curve" smooth="yes"/>
      <point x="36" y="64"/>
      <point x="85" y="-11"/>
    </contour>
    <contour>
      <point x="79" y="180" type="curve" smooth="yes"/>
      <point x="79" y="327"/>
      <point x="161" y="500"/>
      <point x="296" y="500" type="curve" smooth="yes"/>
      <point x="351" y="500"/>
      <point x="398" y="470"/>
      <point x="422" y="413" type="curve"/>
      <point x="386" y="208" type="line"/>
      <point x="324" y="93"/>
      <point x="261" y="12"/>
      <point x="178" y="12" type="curve" smooth="yes"/>
      <point x="114" y="12"/>
      <point x="79" y="78"/>
    </contour>
  </outline>
</glyph>
<glyph name="b" format="2">
  <advance width="545"/>
  <unicode hex="0062"/>
  <outline>
    <contour>
      <point x="241" y="-11" type="curve" smooth="yes"/>
      <point x="404" y="-11"/>
      <point x="510" y="147"/>
      <point x="510" y="324" type="curve" smooth="yes"/>
      <point x="510" y="436"/>
      <point x="466" y="523"/>
      <point x="362" y="523" type="curve" smooth="yes"/>
      <point x="279" y="523"/>
      <point x="214" y="463"/>
      <point x="155" y="363" type="curve"/>
      <point x="223" y="742" type="line"/>
      <point x="102" y="742" type="line"/>
      <point x="98" y="723" type="line"/>
      <point x="116" y="721" type="line" smooth="yes"/>
      <point x="158" y="714"/>
      <point x="176" y="708"/>
      <point x="172" y="684" type="curve" smooth="yes"/>
      <point x="62" y="61" type="line"/>
      <point x="92" y="27"/>
      <point x="159" y="-11"/>
    </contour>
    <contour>
      <point x="359" y="500" type="curve" smooth="yes"/>
      <point x="437" y="500"/>
      <point x="467" y="423"/>
      <point x="467" y="324" type="curve" smooth="yes"/>
      <point x="467" y="161"/>
      <point x="385" y="12"/>
      <point x="241" y="12" type="curve" smooth="yes"/>
      <point x="187" y="12"/>
      <point x="133" y="36"/>
      <point x="103" y="66" type="curve"/>
      <point x="146" y="308" type="line"/>
      <point x="208" y="422"/>
      <point x="275" y="500"/>
    </contour>
  </outline>
</glyph>
<glyph name="c" format="2">
  <advance width="478"/>
  <unicode hex="0063"/>
  <anchor x="253.68421052631578" y="556.6842105263158" name="top"/>
  <anchor x="263.7368421052632" y="0.0" name="bottom"/>
  <outline>
    <contour>
      <point x="307" y="523" type="curve" smooth="yes"/>
      <point x="145" y="523"/>
      <point x="36" y="381"/>
      <point x="36" y="219" type="curve" smooth="yes"/>
      <point x="36" y="82"/>
      <point x="119" y="-11"/>
      <point x="244" y="-11" type="curve" smooth="yes"/>
      <point x="337" y="-11"/>
      <point x="397" y="41"/>
      <point x="435" y="114" type="curve"/>
      <point x="416" y="128" type="line"/>
      <point x="385" y="66"/>
      <point x="332" y="12"/>
      <point x="244" y="12" type="curve" smooth="yes"/>
      <point x="139" y="12"/>
      <point x="79" y="95"/>
      <point x="79" y="219" type="curve" smooth="yes"/>
      <point x="79" y="367"/>
      <point x="168" y="500"/>
      <point x="307" y="500" type="curve" smooth="yes"/>
      <point x="355" y="500"/>
      <point x="391" y="486"/>
      <point x="414" y="467" type="curve"/>
      <point x="400" y="388" type="line"/>
      <point x="447" y="388" type="line"/>
      <point x="461" y="465" type="line"/>
      <point x="452" y="478"/>
      <point x="401" y="523"/>
    </contour>
  </outline>
</glyph>
<glyph name="d" format="2">
  <advance width="550"/>
  <unicode hex="0064"/>
  <anchor x="547.1052631578947" y="742.1052631578947" name="right"/>
  <anchor x="256.2105263157895" y="0.0" name="bottom"/>
  <outline>
    <contour>
      <point x="185" y="-11" type="curve" smooth="yes"/>
      <point x="269" y="-11"/>
      <point x="335" y="51"/>
      <point x="393" y="154" type="curve"/>
      <point x="387" y="118"/>
      <point x="382" y="81"/>
      <point x="382" y="58" type="curve" smooth="yes"/>
      <point x="382" y="12"/>
      <point x="412" y="-7"/>
      <point x="454" y="-7" type="curve" smooth="yes"/>
      <point x="478" y="-7"/>
      <point x="504" y="3"/>
      <point x="515" y="11" type="curve"/>
      <point x="519" y="32" type="line"/>
      <point x="512" y="30"/>
      <point x="486" y="17"/>
      <point x="459" y="17" type="curve" smooth="yes"/>
      <point x="433" y="17"/>
      <point x="421" y="28"/>
      <point x="421" y="57" type="curve" smooth="yes"/>
      <point x="421" y="81"/>
      <point x="429" y="125"/>
      <point x="435" y="161" type="curve"/>
      <point x="538" y="742" type="line"/>
      <point x="417" y="742" type="line"/>
      <point x="413" y="723" type="line"/>
      <point x="432" y="721" type="line" smooth="yes"/>
      <point x="474" y="714"/>
      <point x="492" y="708"/>
      <point x="487" y="684" type="curve" smooth="yes"/>
      <point x="446" y="451" type="line"/>
      <point x="417" y="498"/>
      <point x="366" y="523"/>
      <point x="307" y="523" type="curve" smooth="yes"/>
      <point x="143" y="523"/>
      <point x="36" y="360"/>
      <point x="36" y="186" type="curve" smooth="yes"/>
      <point x="36" y="76"/>
      <point x="81" y="-11"/>
    </contour>
    <contour>
      <point x="79" y="186" type="curve" smooth="yes"/>
      <point x="79" y="346"/>
      <point x="162" y="500"/>
      <point x="307" y="500" type="curve" smooth="yes"/>
      <point x="366" y="500"/>
      <point x="416" y="469"/>
      <point x="440" y="413" type="curve"/>
      <point x="404" y="211" type="line"/>
      <point x="341" y="95"/>
      <point x="273" y="12"/>
      <point x="187" y="12" type="curve" smooth="yes"/>
      <point x="110" y="12"/>
      <point x="79" y="91"/>
    </contour>
  </outline>
</glyph>
<glyph name="e" format="2">
  <advance width="457"/>
  <unicode hex="0065"/>
  <outline>
    <contour>
      <point x="231" y="-11" type="curve" smooth="yes"/>
      <point x="321" y="-11"/>
      <point x="383" y="40"/>
      <point x="420" y="105" type="curve"/>
      <point x="400" y="119" type="line"/>
      <point x="360" y="51"/>
      <point x="309" y="12"/>
      <point x="231" y="12" type="curve" smooth="yes"/>
      <point x="140" y="12"/>
      <point x="79" y="81"/>
      <point x="79" y="209" type="curve" smooth="yes"/>
      <point x="79" y="213"/>
      <point x="79" y="217"/>
      <point x="79" y="221" type="curve"/>
      <point x="316" y="251"/>
      <point x="434" y="309"/>
      <point x="434" y="416" type="curve" smooth="yes"/>
      <point x="434" y="476"/>
      <point x="386" y="523"/>
      <point x="297" y="523" type="curve" smooth="yes"/>
      <point x="136" y="523"/>
      <point x="36" y="366"/>
      <point x="36" y="209" type="curve" smooth="yes"/>
      <point x="36" y="68"/>
      <point x="119" y="-11"/>
    </contour>
    <contour>
      <point x="297" y="500" type="curve" smooth="yes"/>
      <point x="361" y="500"/>
      <point x="396" y="464"/>
      <point x="396" y="414" type="curve" smooth="yes"/>
      <point x="396" y="318"/>
      <point x="294" y="268"/>
      <point x="80" y="240" type="curve"/>
      <point x="91" y="388"/>
      <point x="180" y="500"/>
    </contour>
  </outline>
</glyph>
<glyph name="f" format="2">
  <advance width="308"/>
  <unicode hex="0066"/>
  <outline>
    <contour>
      <point x="57" y="513" type="line"/>
      <point x="54" y="490" type="line"/>
      <point x="141" y="490" type="line"/>
      <point x="37" y="-223" type="line"/>
      <point x="73" y="-223" type="line"/>
      <point x="181" y="490" type="line"/>
      <point x="324" y="490" type="line"/>
      <point x="327" y="513" type="line"/>
      <point x="185" y="513" type="line"/>
      <point x="199" y="607" type="line" smooth="yes"/>
      <point x="213" y="696"/>
      <point x="251" y="732"/>
      <point x="317" y="732" type="curve" smooth="yes"/>
      <point x="354" y="732"/>
      <point x="384" y="717"/>
      <point x="394" y="712" type="curve"/>
      <point x="399" y="738" type="line"/>
      <point x="387" y="745"/>
      <point x="359" y="755"/>
      <point x="318" y="755" type="curve" smooth="yes"/>
      <point x="238" y="755"/>
      <point x="174" y="711"/>
      <point x="159" y="612" type="curve" smooth="yes"/>
      <point x="145" y="513" type="line"/>
    </contour>
  </outline>
</glyph>
<glyph name="g" format="2">
  <advance width="530"/>
  <unicode hex="0067"/>
  <outline>
    <contour>
      <point x="167" y="-225" type="curve" smooth="yes"/>
      <point x="306" y="-225"/>
      <point x="381" y="-149"/>
      <point x="405" y="-11" type="curve" smooth="yes"/>
      <point x="498" y="516" type="line"/>
      <point x="476" y="516" type="line"/>
      <point x="451" y="444" type="line"/>
      <point x="422" y="495"/>
      <point x="369" y="523"/>
      <point x="307" y="523" type="curve" smooth="yes"/>
      <point x="143" y="523"/>
      <point x="36" y="361"/>
      <point x="36" y="189" type="curve" smooth="yes"/>
      <point x="36" y="80"/>
      <point x="81" y="-5"/>
      <point x="186" y="-5" type="curve" smooth="yes"/>
      <point x="269" y="-5"/>
      <point x="336" y="57"/>
      <point x="395" y="158" type="curve"/>
      <point x="365" y="-9" type="line" smooth="yes"/>
      <point x="342" y="-139"/>
      <point x="283" y="-202"/>
      <point x="167" y="-202" type="curve" smooth="yes"/>
      <point x="109" y="-202"/>
      <point x="57" y="-183"/>
      <point x="30" y="-156" type="curve"/>
      <point x="42" y="-87" type="line"/>
      <point x="-5" y="-87" type="line"/>
      <point x="-17" y="-153" type="line"/>
      <point x="8" y="-187"/>
      <point x="78" y="-225"/>
    </contour>
    <contour>
      <point x="307" y="500" type="curve" smooth="yes"/>
      <point x="367" y="500"/>
      <point x="416" y="469"/>
      <point x="440" y="413" type="curve"/>
      <point x="405" y="213" type="line"/>
      <point x="341" y="99"/>
      <point x="273" y="18"/>
      <point x="188" y="18" type="curve" smooth="yes"/>
      <point x="110" y="18"/>
      <point x="79" y="95"/>
      <point x="79" y="189" type="curve" smooth="yes"/>
      <point x="79" y="347"/>
      <point x="162" y="500"/>
    </contour>
  </outline>
</glyph>
<glyph name="h" format="2">
  <advance width="558"/>
  <unicode hex="0068"/>
  <anchor x="313.36842105263156" y="762.1052631578947" name="top"/>
  <anchor x="299.94736842105266" y="0.0" name="bottom"/>
  <outline>
    <contour>
      <point x="102" y="0" type="line"/>
      <point x="159" y="320" type="line"/>
      <point x="226" y="425"/>
      <point x="295" y="497"/>
      <point x="369" y="497" type="curve" smooth="yes"/>
      <point x="418" y="497"/>
      <point x="442" y="471"/>
      <point x="442" y="424" type="curve" smooth="yes"/>
      <point x="442" y="387"/>
      <point x="436" y="357"/>
      <point x="429" y="320" type="curve" smooth="yes"/>
      <point x="406" y="206" type="line" smooth="yes"/>
      <point x="393" y="141"/>
      <point x="384" y="91"/>
      <point x="384" y="59" type="curve" smooth="yes"/>
      <point x="384" y="12"/>
      <point x="414" y="-7"/>
      <point x="456" y="-7" type="curve" smooth="yes"/>
      <point x="480" y="-7"/>
      <point x="507" y="3"/>
      <point x="517" y="11" type="curve"/>
      <point x="521" y="32" type="line"/>
      <point x="514" y="30"/>
      <point x="489" y="17"/>
      <point x="461" y="17" type="curve" smooth="yes"/>
      <point x="436" y="17"/>
      <point x="423" y="28"/>
      <point x="423" y="58" type="curve" smooth="yes"/>
      <point x="423" y="86"/>
      <point x="433" y="140"/>
      <point x="443" y="188" type="curve" smooth="yes"/>
      <point x="468" y="317" type="line" smooth="yes"/>
      <point x="475" y="354"/>
      <point x="482" y="390"/>
      <point x="482" y="424" type="curve" smooth="yes"/>
      <point x="482" y="482"/>
      <point x="444" y="523"/>
      <point x="377" y="523" type="curve" smooth="yes"/>
      <point x="300" y="523"/>
      <point x="231" y="462"/>
      <point x="167" y="367" type="curve"/>
      <point x="234" y="742" type="line"/>
      <point x="113" y="742" type="line"/>
      <point x="110" y="723" type="line"/>
      <point x="128" y="721" type="line" smooth="yes"/>
      <point x="170" y="714"/>
      <point x="188" y="708"/>
      <point x="184" y="684" type="curve" smooth="yes"/>
      <point x="62" y="0" type="line"/>
    </contour>
  </outline>
</glyph>
<glyph name="i" format="2">
  <advance width="249"/>
  <unicode hex="0069"/>
  <anchor x="150.47368421052633" y="555.7368421052631" name="top"/>
  <anchor x="192.47368421052633" y="-10.0" name="right"/>
  <anchor x="150.47368421052633" y="-10.0" name="bottom"/>
  <outline>
    <contour>
      <point x="191" y="659" type="curve" smooth="yes"/>
      <point x="212" y="659"/>
      <point x="227" y="672"/>
      <point x="227" y="695" type="curve" smooth="yes"/>
      <point x="227" y="718"/>
      <point x="212" y="731"/>
      <point x="191" y="731" type="curve" smooth="yes"/>
      <point x="171" y="731"/>
      <point x="156" y="718"/>
      <point x="156" y="695" type="curve" smooth="yes"/>
      <point x="156" y="672"/>
      <point x="171" y="659"/>
    </contour>
    <contour>
      <point x="133" y="186" type="curve" smooth="yes"/>
      <point x="191" y="513" type="line"/>
      <point x="70" y="513" type="line"/>
      <point x="67" y="494" type="line"/>
      <point x="85" y="491" type="line" smooth="yes"/>
      <point x="127" y="484"/>
      <point x="145" y="479"/>
      <point x="141" y="455" type="curve" smooth="yes"/>
      <point x="96" y="204" type="line" smooth="yes"/>
      <point x="85" y="142"/>
      <point x="75" y="91"/>
      <point x="75" y="59" type="curve" smooth="yes"/>
      <point x="75" y="12"/>
      <point x="105" y="-7"/>
      <point x="147" y="-7" type="curve" smooth="yes"/>
      <point x="172" y="-7"/>
      <point x="198" y="3"/>
      <point x="209" y="11" type="curve"/>
      <point x="213" y="32" type="line"/>
      <point x="205" y="30"/>
      <point x="180" y="17"/>
      <point x="153" y="17" type="curve" smooth="yes"/>
      <point x="127" y="17"/>
      <point x="115" y="28"/>
      <point x="115" y="58" type="curve" smooth="yes"/>
      <point x="115" y="86"/>
      <point x="125" y="141"/>
    </contour>
  </outline>
</glyph>
<glyph name="j" format="2">
  <advance width="236"/>
  <unicode hex="006A"/>
  <anchor x="138.0" y="555.7368421052631" name="top"/>
  <outline>
    <contour>
      <point x="185" y="659" type="curve" smooth="yes"/>
      <point x="205" y="659"/>
      <point x="220" y="672"/>
      <point x="220" y="695" type="curve" smooth="yes"/>
      <point x="220" y="718"/>
      <point x="205" y="731"/>
      <point x="185" y="731" type="curve" smooth="yes"/>
      <point x="164" y="731"/>
      <point x="149" y="718"/>
      <point x="149" y="695" type="curve" smooth="yes"/>
      <point x="149" y="672"/>
      <point x="164" y="659"/>
    </contour>
    <contour>
      <point x="52" y="-91" type="line" smooth="yes"/>
      <point x="39" y="-176"/>
      <point x="4" y="-210"/>
      <point x="-51" y="-210" type="curve" smooth="yes"/>
      <point x="-90" y="-210"/>
      <point x="-118" y="-198"/>
      <point x="-134" y="-191" type="curve"/>
      <point x="-139" y="-216" type="line"/>
      <point x="-126" y="-222"/>
      <point x="-94" y="-235"/>
      <point x="-53" y="-235" type="curve" smooth="yes"/>
      <point x="13" y="-235"/>
      <point x="74" y="-206"/>
      <point x="92" y="-92" type="curve" smooth="yes"/>
      <point x="188" y="513" type="line"/>
      <point x="67" y="513" type="line"/>
      <point x="64" y="494" type="line"/>
      <point x="82" y="491" type="line" smooth="yes"/>
      <point x="124" y="484"/>
      <point x="142" y="479"/>
      <point x="138" y="455" type="curve" smooth="yes"/>
    </contour>
  </outline>
</glyph>
<glyph name="k" format="2">
  <advance width="495"/>
  <unicode hex="006B"/>
  <anchor x="278.94736842105266" y="0.0" name="bottom"/>
  <outline>
    <contour>
      <point x="102" y="0" type="line"/>
      <point x="234" y="742" type="line"/>
      <point x="113" y="742" type="line"/>
      <point x="110" y="723" type="line"/>
      <point x="128" y="721" type="line" smooth="yes"/>
      <point x="170" y="714"/>
      <point x="188" y="708"/>
      <point x="184" y="684" type="curve" smooth="yes"/>
      <point x="62" y="0" type="line"/>
    </contour>
    <contour>
      <point x="456" y="12" type="curve"/>
      <point x="460" y="33" type="line"/>
      <point x="456" y="32"/>
      <point x="431" y="17"/>
      <point x="409" y="17" type="curve" smooth="yes"/>
      <point x="383" y="17"/>
      <point x="363" y="42"/>
      <point x="331" y="108" type="curve" smooth="yes"/>
      <point x="240" y="299" type="line"/>
      <point x="298" y="339"/>
      <point x="457" y="467"/>
      <point x="496" y="505" type="curve"/>
      <point x="496" y="513" type="line"/>
      <point x="453" y="513" type="line"/>
      <point x="420" y="475"/>
      <point x="260" y="332"/>
      <point x="203" y="295" type="curve"/>
      <point x="202" y="290" type="line"/>
      <point x="294" y="94" type="line" smooth="yes"/>
      <point x="332" y="15"/>
      <point x="357" y="-7"/>
      <point x="403" y="-7" type="curve" smooth="yes"/>
      <point x="426" y="-7"/>
      <point x="446" y="3"/>
    </contour>
  </outline>
</glyph>
<glyph name="l" format="2">
  <advance width="233"/>
  <unicode hex="006C"/>
  <anchor x="136.94736842105263" y="753.1052631578947" name="top"/>
  <anchor x="233.94736842105263" y="742.1052631578947" name="right"/>
  <anchor x="283.4736842105263" y="393.36842105263156" name="mid"/>
  <anchor x="139.0" y="0.0" name="bottom"/>
  <outline>
    <contour>
      <point x="217" y="742" type="line"/>
      <point x="96" y="742" type="line"/>
      <point x="93" y="723" type="line"/>
      <point x="111" y="721" type="line" smooth="yes"/>
      <point x="153" y="714"/>
      <point x="171" y="708"/>
      <point x="167" y="684" type="curve" smooth="yes"/>
      <point x="82" y="204" type="line" smooth="yes"/>
      <point x="71" y="142"/>
      <point x="61" y="91"/>
      <point x="61" y="59" type="curve" smooth="yes"/>
      <point x="61" y="12"/>
      <point x="91" y="-7"/>
      <point x="133" y="-7" type="curve" smooth="yes"/>
      <point x="157" y="-7"/>
      <point x="184" y="3"/>
      <point x="194" y="11" type="curve"/>
      <point x="198" y="32" type="line"/>
      <point x="191" y="30"/>
      <point x="166" y="17"/>
      <point x="138" y="17" type="curve" smooth="yes"/>
      <point x="113" y="17"/>
      <point x="100" y="28"/>
      <point x="100" y="58" type="curve" smooth="yes"/>
      <point x="100" y="86"/>
      <point x="111" y="141"/>
      <point x="119" y="186" type="curve" smooth="yes"/>
    </contour>
  </outline>
</glyph>
<glyph name="m" format="2">
  <advance width="847"/>
  <unicode hex="006D"/>
  <anchor x="443.0" y="-10.0" name="bottom"/>
  <outline>
    <contour>
      <point x="102" y="0" type="line"/>
      <point x="159" y="319" type="line"/>
      <point x="225" y="424"/>
      <point x="291" y="497"/>
      <point x="363" y="497" type="curve" smooth="yes"/>
      <point x="410" y="497"/>
      <point x="432" y="470"/>
      <point x="432" y="423" type="curve" smooth="yes"/>
      <point x="432" y="386"/>
      <point x="426" y="357"/>
      <point x="419" y="320" type="curve" smooth="yes"/>
      <point x="360" y="0" type="line"/>
      <point x="400" y="0" type="line"/>
      <point x="458" y="317" type="line" smooth="yes"/>
      <point x="459" y="319"/>
      <point x="459" y="321"/>
      <point x="460" y="324" type="curve"/>
      <point x="525" y="426"/>
      <point x="591" y="497"/>
      <point x="662" y="497" type="curve" smooth="yes"/>
      <point x="708" y="497"/>
      <point x="731" y="471"/>
      <point x="731" y="424" type="curve" smooth="yes"/>
      <point x="731" y="387"/>
      <point x="724" y="357"/>
      <point x="717" y="320" type="curve" smooth="yes"/>
      <point x="694" y="206" type="line" smooth="yes"/>
      <point x="681" y="141"/>
      <point x="672" y="91"/>
      <point x="672" y="59" type="curve" smooth="yes"/>
      <point x="672" y="12"/>
      <point x="702" y="-7"/>
      <point x="744" y="-7" type="curve" smooth="yes"/>
      <point x="769" y="-7"/>
      <point x="795" y="3"/>
      <point x="806" y="11" type="curve"/>
      <point x="810" y="32" type="line"/>
      <point x="802" y="30"/>
      <point x="777" y="17"/>
      <point x="750" y="17" type="curve" smooth="yes"/>
      <point x="724" y="17"/>
      <point x="711" y="28"/>
      <point x="711" y="58" type="curve" smooth="yes"/>
      <point x="711" y="86"/>
      <point x="722" y="140"/>
      <point x="731" y="188" type="curve" smooth="yes"/>
      <point x="756" y="317" type="line" smooth="yes"/>
      <point x="763" y="354"/>
      <point x="770" y="390"/>
      <point x="770" y="424" type="curve" smooth="yes"/>
      <point x="770" y="482"/>
      <point x="734" y="523"/>
      <point x="670" y="523" type="curve" smooth="yes"/>
      <point x="596" y="523"/>
      <point x="529" y="463"/>
      <point x="467" y="370" type="curve"/>
      <point x="470" y="388"/>
      <point x="471" y="405"/>
      <point x="471" y="422" type="curve" smooth="yes"/>
      <point x="471" y="481"/>
      <point x="435" y="523"/>
      <point x="371" y="523" type="curve" smooth="yes"/>
      <point x="296" y="523"/>
      <point x="229" y="462"/>
      <point x="167" y="366" type="curve"/>
      <point x="193" y="513" type="line"/>
      <point x="72" y="513" type="line"/>
      <point x="68" y="494" type="line"/>
      <point x="87" y="491" type="line" smooth="yes"/>
      <point x="129" y="484"/>
      <point x="146" y="479"/>
      <point x="142" y="455" type="curve" smooth="yes"/>
      <point x="62" y="0" type="line"/>
    </contour>
  </outline>
</glyph>
<glyph name="n" format="2">
  <advance width="558"/>
  <unicode hex="006E"/>
  <anchor x="283.89473684210526" y="555.7368421052631" name="top"/>
  <anchor x="288.94736842105266" y="0.0" name="bottom"/>
  <outline>
    <contour>
      <point x="102" y="0" type="line"/>
      <point x="158" y="319" type="line"/>
      <point x="226" y="425"/>
      <point x="294" y="497"/>
      <point x="369" y="497" type="curve" smooth="yes"/>
      <point x="418" y="497"/>
      <point x="442" y="471"/>
      <point x="442" y="424" type="curve" smooth="yes"/>
      <point x="442" y="387"/>
      <point x="436" y="357"/>
      <point x="429" y="320" type="curve" smooth="yes"/>
      <point x="406" y="206" type="line" smooth="yes"/>
      <point x="393" y="141"/>
      <point x="384" y="91"/>
      <point x="384" y="59" type="curve" smooth="yes"/>
      <point x="384" y="12"/>
      <point x="414" y="-7"/>
      <point x="456" y="-7" type="curve" smooth="yes"/>
      <point x="480" y="-7"/>
      <point x="507" y="3"/>
      <point x="517" y="11" type="curve"/>
      <point x="521" y="32" type="line"/>
      <point x="514" y="30"/>
      <point x="489" y="17"/>
      <point x="461" y="17" type="curve" smooth="yes"/>
      <point x="436" y="17"/>
      <point x="423" y="28"/>
      <point x="423" y="58" type="curve" smooth="yes"/>
      <point x="423" y="86"/>
      <point x="433" y="140"/>
      <point x="443" y="188" type="curve" smooth="yes"/>
      <point x="468" y="317" type="line" smooth="yes"/>
      <point x="475" y="354"/>
      <point x="482" y="390"/>
      <point x="482" y="424" type="curve" smooth="yes"/>
      <point x="482" y="482"/>
      <point x="444" y="523"/>
      <point x="377" y="523" type="curve" smooth="yes"/>
      <point x="299" y="523"/>
      <point x="230" y="462"/>
      <point x="166" y="365" type="curve"/>
      <point x="193" y="513" type="line"/>
      <point x="72" y="513" type="line"/>
      <point x="68" y="494" type="line"/>
      <point x="87" y="491" type="line" smooth="yes"/>
      <point x="129" y="484"/>
      <point x="146" y="479"/>
      <point x="142" y="455" type="curve" smooth="yes"/>
      <point x="62" y="0" type="line"/>
    </contour>
  </outline>
</glyph>
<glyph name="o" format="2">
  <advance width="528"/>
  <unicode hex="006F"/>
  <anchor x="264.6842105263158" y="555.7368421052631" name="top"/>
  <anchor x="352.2631578947368" y="0.0" name="right"/>
  <anchor x="263.2631578947368" y="0.0" name="bottom"/>
  <outline>
    <contour>
      <point x="236" y="-11" type="curve" smooth="yes"/>
      <point x="387" y="-11"/>
      <point x="492" y="138"/>
      <point x="492" y="293" type="curve" smooth="yes"/>
      <point x="492" y="420"/>
      <point x="410" y="523"/>
      <point x="291" y="523" type="curve" smooth="yes"/>
      <point x="140" y="523"/>
      <point x="35" y="373"/>
      <point x="35" y="219" type="curve" smooth="yes"/>
      <point x="35" y="92"/>
      <point x="117" y="-11"/>
    </contour>
    <contour>
      <point x="291" y="500" type="curve" smooth="yes"/>
      <point x="391" y="500"/>
      <point x="449" y="413"/>
      <point x="449" y="293" type="curve" smooth="yes"/>
      <point x="449" y="157"/>
      <point x="372" y="12"/>
      <point x="236" y="12" type="curve" smooth="yes"/>
      <point x="136" y="12"/>
      <point x="78" y="99"/>
      <point x="78" y="219" type="curve" smooth="yes"/>
      <point x="78" y="354"/>
      <point x="155" y="500"/>
    </contour>
  </outline>
</glyph>
<glyph name="p" format="2">
  <advance width="554"/>
  <unicode hex="0070"/>
  <outline>
    <contour>
      <point x="-59" y="-223" type="line"/>
      <point x="162" y="-223" type="line"/>
      <point x="166" y="-203" type="line"/>
      <point x="140" y="-203" type="line" smooth="yes"/>
      <point x="114" y="-203"/>
      <point x="67" y="-200"/>
      <point x="68" y="-193" type="curve" smooth="yes"/>
      <point x="112" y="57" type="line"/>
      <point x="142" y="15"/>
      <point x="192" y="-11"/>
      <point x="251" y="-11" type="curve" smooth="yes"/>
      <point x="414" y="-11"/>
      <point x="520" y="147"/>
      <point x="520" y="324" type="curve" smooth="yes"/>
      <point x="520" y="436"/>
      <point x="476" y="523"/>
      <point x="372" y="523" type="curve" smooth="yes"/>
      <point x="289" y="523"/>
      <point x="224" y="463"/>
      <point x="165" y="362" type="curve"/>
      <point x="191" y="513" type="line"/>
      <point x="70" y="513" type="line"/>
      <point x="67" y="494" type="line"/>
      <point x="86" y="491" type="line" smooth="yes"/>
      <point x="128" y="484"/>
      <point x="145" y="479"/>
      <point x="141" y="455" type="curve" smooth="yes"/>
      <point x="32" y="-173" type="line" smooth="yes"/>
      <point x="28" y="-197"/>
      <point x="-7" y="-203"/>
      <point x="-53" y="-203" type="curve" smooth="yes"/>
      <point x="-55" y="-203" type="line"/>
    </contour>
    <contour>
      <point x="370" y="500" type="curve" smooth="yes"/>
      <point x="447" y="500"/>
      <point x="477" y="423"/>
      <point x="477" y="324" type="curve" smooth="yes"/>
      <point x="477" y="161"/>
      <point x="395" y="12"/>
      <point x="251" y="12" type="curve" smooth="yes"/>
      <point x="191" y="12"/>
      <point x="142" y="45"/>
      <point x="118" y="95" type="curve"/>
      <point x="156" y="308" type="line"/>
      <point x="218" y="422"/>
      <point x="285" y="500"/>
    </contour>
  </outline>
</glyph>
<glyph name="q" format="2">
  <advance width="531"/>
  <unicode hex="0071"/>
  <outline>
    <contour>
      <point x="452" y="-203" type="line"/>
      <point x="450" y="-203" type="line"/>
      <point x="404" y="-203"/>
      <point x="373" y="-197"/>
      <point x="377" y="-173" type="curve" smooth="yes"/>
      <point x="498" y="516" type="line"/>
      <point x="476" y="516" type="line"/>
      <point x="451" y="443" type="line"/>
      <point x="422" y="495"/>
      <point x="369" y="523"/>
      <point x="307" y="523" type="curve" smooth="yes"/>
      <point x="143" y="523"/>
      <point x="36" y="360"/>
      <point x="36" y="186" type="curve" smooth="yes"/>
      <point x="36" y="76"/>
      <point x="81" y="-11"/>
      <point x="185" y="-11" type="curve" smooth="yes"/>
      <point x="270" y="-11"/>
      <point x="335" y="52"/>
      <point x="395" y="155" type="curve"/>
      <point x="333" y="-193" type="line"/>
      <point x="332" y="-200"/>
      <point x="286" y="-203"/>
      <point x="261" y="-203" type="curve" smooth="yes"/>
      <point x="232" y="-203" type="line"/>
      <point x="229" y="-223" type="line"/>
      <point x="449" y="-223" type="line"/>
    </contour>
    <contour>
      <point x="307" y="500" type="curve" smooth="yes"/>
      <point x="366" y="500"/>
      <point x="416" y="469"/>
      <point x="440" y="413" type="curve"/>
      <point x="404" y="211" type="line"/>
      <point x="341" y="95"/>
      <point x="273" y="12"/>
      <point x="187" y="12" type="curve" smooth="yes"/>
      <point x="110" y="12"/>
      <point x="79" y="91"/>
      <point x="79" y="186" type="curve" smooth="yes"/>
      <point x="79" y="346"/>
      <point x="162" y="500"/>
    </contour>
  </outline>
</glyph>
<glyph name="r" format="2">
  <advance width="345"/>
  <unicode hex="0072"/>
  <anchor x="195.78947368421052" y="549.7368421052631" name="top"/>
  <anchor x="147.8421052631579" y="0.0" name="bottom"/>
  <outline>
    <contour>
      <point x="100" y="0" type="line"/>
      <point x="155" y="311" type="line"/>
      <point x="205" y="419"/>
      <point x="247" y="478"/>
      <point x="305" y="478" type="curve" smooth="yes"/>
      <point x="326" y="478"/>
      <point x="341" y="472"/>
      <point x="345" y="471" type="curve"/>
      <point x="351" y="518" type="line"/>
      <point x="350" y="519"/>
      <point x="340" y="522"/>
      <point x="321" y="522" type="curve" smooth="yes"/>
      <point x="254" y="522"/>
      <point x="204" y="448"/>
      <point x="164" y="366" type="curve"/>
      <point x="191" y="513" type="line"/>
      <point x="70" y="513" type="line"/>
      <point x="66" y="494" type="line"/>
      <point x="85" y="491" type="line" smooth="yes"/>
      <point x="126" y="484"/>
      <point x="144" y="479"/>
      <point x="140" y="455" type="curve" smooth="yes"/>
      <point x="60" y="0" type="line"/>
    </contour>
  </outline>
</glyph>
<glyph name="s" format="2">
  <advance width="438"/>
  <unicode hex="0073"/>
  <anchor x="218.57894736842104" y="550.7368421052631" name="top"/>
  <anchor x="217.6315789473684" y="0.0" name="bottom"/>
  <outline>
    <contour>
      <point x="199" y="-11" type="curve" smooth="yes"/>
      <point x="315" y="-11"/>
      <point x="381" y="48"/>
      <point x="381" y="135" type="curve" smooth="yes"/>
      <point x="381" y="221"/>
      <point x="308" y="248"/>
      <point x="243" y="279" type="curve" smooth="yes"/>
      <point x="180" y="310"/>
      <point x="132" y="331"/>
      <point x="132" y="391" type="curve" smooth="yes"/>
      <point x="132" y="458"/>
      <point x="179" y="500"/>
      <point x="264" y="500" type="curve" smooth="yes"/>
      <point x="308" y="500"/>
      <point x="341" y="488"/>
      <point x="362" y="473" type="curve"/>
      <point x="351" y="408" type="line"/>
      <point x="396" y="408" type="line"/>
      <point x="409" y="477" type="line"/>
      <point x="397" y="489"/>
      <point x="351" y="523"/>
      <point x="264" y="523" type="curve" smooth="yes"/>
      <point x="167" y="523"/>
      <point x="95" y="473"/>
      <point x="95" y="390" type="curve" smooth="yes"/>
      <point x="95" y="311"/>
      <point x="148" y="285"/>
      <point x="211" y="253" type="curve" smooth="yes"/>
      <point x="273" y="222"/>
      <point x="344" y="197"/>
      <point x="344" y="133" type="curve" smooth="yes"/>
      <point x="344" y="54"/>
      <point x="289" y="12"/>
      <point x="199" y="12" type="curve" smooth="yes"/>
      <point x="144" y="12"/>
      <point x="96" y="28"/>
      <point x="60" y="56" type="curve"/>
      <point x="72" y="125" type="line"/>
      <point x="26" y="125" type="line"/>
      <point x="14" y="55" type="line"/>
      <point x="46" y="23"/>
      <point x="110" y="-11"/>
    </contour>
  </outline>
</glyph>
<glyph name="t" format="2">
  <advance width="320"/>
  <unicode hex="0074"/>
  <anchor x="145.6315789473684" y="679.7368421052631" name="top"/>
  <anchor x="270.63157894736844" y="685.7368421052631" name="right"/>
  <anchor x="225.68421052631578" y="0.0" name="bottom"/>
  <outline>
    <contour>
      <point x="178" y="-11" type="curve" smooth="yes"/>
      <point x="211" y="-11"/>
      <point x="239" y="-2"/>
      <point x="257" y="6" type="curve"/>
      <point x="261" y="30" type="line"/>
      <point x="249" y="25"/>
      <point x="220" y="14"/>
      <point x="183" y="14" type="curve" smooth="yes"/>
      <point x="143" y="14"/>
      <point x="120" y="31"/>
      <point x="120" y="82" type="curve" smooth="yes"/>
      <point x="120" y="106"/>
      <point x="123" y="129"/>
      <point x="129" y="162" type="curve" smooth="yes"/>
      <point x="186" y="490" type="line"/>
      <point x="325" y="490" type="line"/>
      <point x="329" y="513" type="line"/>
      <point x="190" y="513" type="line"/>
      <point x="212" y="639" type="line"/>
      <point x="183" y="639" type="line"/>
      <point x="166" y="561" type="line" smooth="yes"/>
      <point x="156" y="517"/>
      <point x="118" y="509"/>
      <point x="69" y="509" type="curve" smooth="yes"/>
      <point x="62" y="509" type="line"/>
      <point x="59" y="490" type="line"/>
      <point x="146" y="490" type="line"/>
      <point x="89" y="163" type="line" smooth="yes"/>
      <point x="83" y="130"/>
      <point x="80" y="106"/>
      <point x="80" y="82" type="curve" smooth="yes"/>
      <point x="80" y="14"/>
      <point x="124" y="-11"/>
    </contour>
  </outline>
</glyph>
<glyph name="u" format="2">
  <advance width="545"/>
  <unicode hex="0075"/>
  <anchor x="242.26315789473685" y="555.7368421052631" name="top"/>
  <anchor x="391.3157894736842" y="0.0" name="right"/>
  <anchor x="241.31578947368422" y="0.0" name="bottom"/>
  <outline>
    <contour>
      <point x="449" y="-7" type="curve" smooth="yes"/>
      <point x="473" y="-7"/>
      <point x="500" y="3"/>
      <point x="511" y="11" type="curve"/>
      <point x="515" y="32" type="line"/>
      <point x="508" y="30"/>
      <point x="484" y="17"/>
      <point x="454" y="17" type="curve" smooth="yes"/>
      <point x="429" y="17"/>
      <point x="417" y="29"/>
      <point x="417" y="57" type="curve" smooth="yes"/>
      <point x="417" y="78"/>
      <point x="423" y="113"/>
      <point x="427" y="138" type="curve" smooth="yes"/>
      <point x="493" y="513" type="line"/>
      <point x="453" y="513" type="line"/>
      <point x="398" y="199" type="line"/>
      <point x="332" y="89"/>
      <point x="265" y="17"/>
      <point x="192" y="17" type="curve" smooth="yes"/>
      <point x="143" y="17"/>
      <point x="119" y="45"/>
      <point x="119" y="95" type="curve" smooth="yes"/>
      <point x="119" y="125"/>
      <point x="124" y="158"/>
      <point x="131" y="197" type="curve" smooth="yes"/>
      <point x="190" y="513" type="line"/>
      <point x="68" y="513" type="line"/>
      <point x="65" y="494" type="line"/>
      <point x="83" y="491" type="line" smooth="yes"/>
      <point x="125" y="484"/>
      <point x="143" y="479"/>
      <point x="139" y="455" type="curve" smooth="yes"/>
      <point x="91" y="200" type="line" smooth="yes"/>
      <point x="84" y="161"/>
      <point x="79" y="122"/>
      <point x="79" y="95" type="curve" smooth="yes"/>
      <point x="79" y="31"/>
      <point x="117" y="-8"/>
      <point x="183" y="-8" type="curve" smooth="yes"/>
      <point x="259" y="-8"/>
      <point x="326" y="52"/>
      <point x="389" y="149" type="curve"/>
      <point x="382" y="117"/>
      <point x="377" y="80"/>
      <point x="377" y="57" type="curve" smooth="yes"/>
      <point x="377" y="12"/>
      <point x="407" y="-7"/>
    </contour>
  </outline>
</glyph>
<glyph name="v" format="2">
  <advance width="470"/>
  <unicode hex="0076"/>
  <outline>
    <contour>
      <point x="472" y="510" type="curve"/>
      <point x="472" y="513" type="line"/>
      <point x="430" y="513" type="line"/>
      <point x="430" y="420"/>
      <point x="265" y="109"/>
      <point x="202" y="31" type="curve"/>
      <point x="136" y="513" type="line"/>
      <point x="30" y="513" type="line"/>
      <point x="27" y="494" type="line"/>
      <point x="40" y="492" type="line" smooth="yes"/>
      <point x="89" y="484"/>
      <point x="101" y="475"/>
      <point x="105" y="450" type="curve" smooth="yes"/>
      <point x="169" y="0" type="line"/>
      <point x="203" y="0" type="line"/>
      <point x="259" y="51"/>
      <point x="459" y="405"/>
    </contour>
  </outline>
</glyph>
<glyph name="w" format="2">
  <advance width="712"/>
  <unicode hex="0077"/>
  <anchor x="349.6842105263158" y="555.7368421052631" name="top"/>
  <outline>
    <contour>
      <point x="478" y="0" type="line"/>
      <point x="526" y="52"/>
      <point x="701" y="405"/>
      <point x="714" y="510" type="curve"/>
      <point x="714" y="513" type="line"/>
      <point x="672" y="513" type="line"/>
      <point x="672" y="420"/>
      <point x="529" y="111"/>
      <point x="475" y="32" type="curve"/>
      <point x="416" y="513" type="line"/>
      <point x="381" y="513" type="line"/>
      <point x="370" y="424"/>
      <point x="234" y="132"/>
      <point x="181" y="40" type="curve"/>
      <point x="137" y="513" type="line"/>
      <point x="30" y="513" type="line"/>
      <point x="27" y="494" type="line"/>
      <point x="40" y="492" type="line" smooth="yes"/>
      <point x="89" y="484"/>
      <point x="102" y="475"/>
      <point x="105" y="450" type="curve" smooth="yes"/>
      <point x="148" y="0" type="line"/>
      <point x="182" y="0" type="line"/>
      <point x="215" y="44"/>
      <point x="346" y="313"/>
      <point x="388" y="438" type="curve"/>
      <point x="444" y="0" type="line"/>
    </contour>
  </outline>
</glyph>
<glyph name="x" format="2">
  <advance width="478"/>
  <unicode hex="0078"/>
  <outline>
    <contour>
      <point x="332" y="102" type="curve" smooth="yes"/>
      <point x="265" y="267" type="line"/>
      <point x="467" y="508" type="line"/>
      <point x="467" y="513" type="line"/>
      <point x="426" y="513" type="line"/>
      <point x="256" y="288" type="line"/>
      <point x="165" y="513" type="line"/>
      <point x="78" y="513" type="line"/>
      <point x="74" y="494" type="line"/>
      <point x="88" y="492" type="line" smooth="yes"/>
      <point x="132" y="485"/>
      <point x="139" y="476"/>
      <point x="149" y="452" type="curve" smooth="yes"/>
      <point x="226" y="264" type="line"/>
      <point x="11" y="5" type="line"/>
      <point x="11" y="0" type="line"/>
      <point x="52" y="0" type="line"/>
      <point x="235" y="241" type="line"/>
      <point x="293" y="99" type="line" smooth="yes"/>
      <point x="328" y="14"/>
      <point x="347" y="-7"/>
      <point x="393" y="-7" type="curve"/>
      <point x="413" y="-7"/>
      <point x="433" y="2"/>
      <point x="443" y="11" type="curve"/>
      <point x="447" y="32" type="line"/>
      <point x="441" y="30"/>
      <point x="421" y="17"/>
      <point x="399" y="17" type="curve" smooth="yes"/>
      <point x="371" y="17"/>
      <point x="358" y="39"/>
    </contour>
  </outline>
</glyph>
<glyph name="y" format="2">
  <advance width="453"/>
  <unicode hex="0079"/>
  <anchor x="259.7894736842105" y="555.7368421052631" name="top"/>
  <anchor x="269.8421052631579" y="-216.68421052631578" name="bottom"/>
  <outline>
    <contour>
      <point x="-16" y="-223" type="line"/>
      <point x="43" y="-223" type="line"/>
      <point x="71" y="-207"/>
      <point x="189" y="-22"/>
      <point x="222" y="15" type="curve"/>
      <point x="285" y="85"/>
      <point x="441" y="414"/>
      <point x="454" y="510" type="curve"/>
      <point x="454" y="513" type="line"/>
      <point x="411" y="513" type="line"/>
      <point x="411" y="413"/>
      <point x="277" y="129"/>
      <point x="217" y="44" type="curve"/>
      <point x="132" y="513" type="line"/>
      <point x="29" y="513" type="line"/>
      <point x="25" y="494" type="line"/>
      <point x="39" y="492" type="line" smooth="yes"/>
      <point x="88" y="484"/>
      <point x="99" y="475"/>
      <point x="104" y="450" type="curve" smooth="yes"/>
      <point x="186" y="6" type="line"/>
      <point x="136" y="-46"/>
      <point x="26" y="-196"/>
      <point x="-16" y="-215" type="curve"/>
    </contour>
  </outline>
</glyph>
<glyph name="z" format="2">
  <advance width="494"/>
  <unicode hex="007A"/>
  <anchor x="250.26315789473685" y="555.7368421052631" name="top"/>
  <anchor x="263.5263157894737" y="0.0" name="bottom"/>
  <outline>
    <contour>
      <point x="36" y="0" type="line"/>
      <point x="111" y="85" type="line"/>
      <point x="201" y="21"/>
      <point x="251" y="-11"/>
      <point x="318" y="-11" type="curve" smooth="yes"/>
      <point x="405" y="-11"/>
      <point x="458" y="51"/>
      <point x="454" y="157" type="curve"/>
      <point x="433" y="163" type="line"/>
      <point x="427" y="75"/>
      <point x="385" y="28"/>
      <point x="316" y="28" type="curve" smooth="yes"/>
      <point x="265" y="28"/>
      <point x="220" y="46"/>
      <point x="130" y="106" type="curve"/>
      <point x="471" y="489" type="line"/>
      <point x="475" y="513" type="line"/>
      <point x="116" y="513" type="line"/>
      <point x="90" y="368" type="line"/>
      <point x="110" y="368" type="line"/>
      <point x="134" y="436" type="line" smooth="yes"/>
      <point x="147" y="473"/>
      <point x="174" y="480"/>
      <point x="258" y="480" type="curve" smooth="yes"/>
      <point x="426" y="480" type="line"/>
      <point x="17" y="20" type="line"/>
      <point x="14" y="0" type="line"/>
    </contour>
  </outline>
</glyph>
<glyph name="braceleft" format="2">
  <advance width="305"/>
  <unicode hex="007B"/>
  <outline>
    <contour>
      <point x="209" y="-144" type="curve"/>
      <point x="215" y="-125" type="line"/>
      <point x="98" y="-122"/>
      <point x="58" y="-81"/>
      <point x="58" y="-16" type="curve" smooth="yes"/>
      <point x="58" y="83"/>
      <point x="215" y="219"/>
      <point x="215" y="248" type="curve" smooth="yes"/>
      <point x="215" y="266"/>
      <point x="195" y="273"/>
      <point x="100" y="308" type="curve"/>
      <point x="101" y="311" type="line"/>
      <point x="219" y="337"/>
      <point x="234" y="344"/>
      <point x="234" y="365" type="curve" smooth="yes"/>
      <point x="234" y="397"/>
      <point x="163" y="518"/>
      <point x="163" y="605" type="curve" smooth="yes"/>
      <point x="163" y="696"/>
      <point x="238" y="744"/>
      <point x="354" y="730" type="curve"/>
      <point x="351" y="750" type="line"/>
      <point x="236" y="764"/>
      <point x="126" y="720"/>
      <point x="126" y="605" type="curve" smooth="yes"/>
      <point x="126" y="532"/>
      <point x="171" y="451"/>
      <point x="207" y="362" type="curve"/>
      <point x="55" y="320" type="line"/>
      <point x="52" y="305" type="line"/>
      <point x="188" y="248" type="line"/>
      <point x="103" y="147"/>
      <point x="20" y="66"/>
      <point x="20" y="-18" type="curve" smooth="yes"/>
      <point x="20" y="-97"/>
      <point x="81" y="-143"/>
    </contour>
  </outline>
</glyph>
<glyph name="endash" format="2">
  <advance width="585"/>
  <unicode hex="2013"/>
  <outline>
    <contour>
      <point x="73" y="327" type="line"/>
      <point x="68" y="303" type="line"/>
      <point x="517" y="303" type="line"/>
      <point x="522" y="327" type="line"/>
    </contour>
  </outline>
</glyph>
<glyph name="emdash" format="2">
  <advance width="925"/>
  <unicode hex="2014"/>
  <outline>
    <contour>
      <point x="73" y="327" type="line"/>
      <point x="68" y="303" type="line"/>
      <point x="857" y="303" type="line"/>
      <point x="862" y="327" type="line"/>
    </contour>
  </outline>
</glyph>
<glyph name="quoteright" format="2">
  <advance width="180"/>
  <unicode hex="2019"/>
  <outline>
    <contour>
      <point x="109" y="550" type="line"/>
      <point x="165" y="586"/>
      <point x="193" y="633"/>
      <point x="193" y="678" type="curve" smooth="yes"/>
      <point x="193" y="704"/>
      <point x="178" y="717"/>
      <point x="158" y="717" type="curve" smooth="yes"/>
      <point x="138" y="717"/>
      <point x="124" y="703"/>
      <point x="124" y="685" type="curve" smooth="yes"/>
      <point x="124" y="667"/>
      <point x="136" y="654"/>
      <point x="156" y="654" type="curve" smooth="yes"/>
      <point x="161" y="654"/>
      <point x="166" y="655"/>
      <point x="170" y="657" type="curve"/>
      <point x="162" y="625"/>
      <point x="133" y="594"/>
      <point x="90" y="569" type="curve"/>
    </contour>
  </outline>
</glyph>
<glyph name="quotedblright" format="2">
  <advance width="304"/>
  <unicode hex="201D"/>
  <outline>
    <contour>
      <point x="109" y="550" type="line"/>
      <point x="165" y="586"/>
      <point x="193" y="633"/>
      <point x="193" y="678" type="curve" smooth="yes"/>
      <point x="193" y="704"/>
      <point x="178" y="717"/>
      <point x="158" y="717" type="curve" smooth="yes"/>
      <point x="138" y="717"/>
      <point x="124" y="703"/>
      <point x="124" y="685" type="curve" smooth="yes"/>
      <point x="124" y="667"/>
      <point x="136" y="654"/>
      <point x="156" y="654" type="curve" smooth="yes"/>
      <point x="161" y="654"/>
      <point x="166" y="655"/>
      <point x="170" y="657" type="curve"/>
      <point x="162" y="625"/>
      <point x="133" y="594"/>
      <point x="90" y="569" type="curve"/>
    </contour>
    <contour>
      <point x="232" y="550" type="line"/>
      <point x="288" y="586"/>
      <point x="316" y="633"/>
      <point x="316" y="678" type="curve" smooth="yes"/>
      <point x="316" y="704"/>
      <point x="301" y="717"/>
      <point x="281" y="717" type="curve" smooth="yes"/>
      <point x="261" y="717"/>
      <point x="247" y="703"/>
      <point x="247" y="685" type="curve" smooth="yes"/>
      <point x="247" y="667"/>
      <point x="259" y="654"/>
      <point x="279" y="654" type="curve" smooth="yes"/>
      <point x="284" y="654"/>
      <point x="289" y="655"/>
      <point x="293" y="657" type="curve"/>
      <point x="285" y="625"/>
      <point x="256" y="594"/>
      <point x="213" y="569" type="curve"/>
    </contour>
  </outline>
</glyph>
<glyph name="minus" format="2">
  <advance width="560"/>
  <unicode hex="2212"/>
  <outline>
    <contour>
      <point x="475" y="353" type="line"/>
      <point x="101" y="353" type="line"/>
      <point x="97" y="330" type="line"/>
      <point x="471" y="330" type="line"/>
    </contour>
  </outline>
</glyph>
